<svg xmlns="http://www.w3.org/2000/svg" xmlns:xlink="http://www.w3.org/1999/xlink" viewBox="0 0 800 600">
  <!-- Definitions for reusable elements -->
  <defs>
    <!-- Table felt texture -->
    <pattern id="feltTexture" patternUnits="userSpaceOnUse" width="100" height="100" patternTransform="scale(0.5)">
      <rect width="100" height="100" fill="#0d5c3f"/>
      <circle cx="10" cy="10" r="1" fill="#0a4c33" opacity="0.5"/>
      <circle cx="30" cy="30" r="1" fill="#0a4c33" opacity="0.5"/>
      <circle cx="50" cy="50" r="1" fill="#0a4c33" opacity="0.5"/>
      <circle cx="70" cy="70" r="1" fill="#0a4c33" opacity="0.5"/>
      <circle cx="90" cy="90" r="1" fill="#0a4c33" opacity="0.5"/>
      <circle cx="20" cy="80" r="1" fill="#0a4c33" opacity="0.5"/>
      <circle cx="40" cy="60" r="1" fill="#0a4c33" opacity="0.5"/>
      <circle cx="60" cy="40" r="1" fill="#0a4c33" opacity="0.5"/>
      <circle cx="80" cy="20" r="1" fill="#0a4c33" opacity="0.5"/>
    </pattern>
    
    <!-- Card back pattern -->
    <pattern id="cardBack" patternUnits="userSpaceOnUse" width="60" height="80">
      <rect width="60" height="80" fill="#aa0000"/>
      <path d="M5,5 L55,5 L55,75 L5,75 Z" stroke="#880000" fill="none" stroke-width="1"/>
      <path d="M10,10 L50,10 L50,70 L10,70 Z" stroke="#880000" fill="none" stroke-width="1"/>
      <path d="M15,40 L45,40 M30,15 L30,65" stroke="#880000" stroke-width="1"/>
      <circle cx="30" cy="40" r="15" fill="none" stroke="#880000" stroke-width="1"/>
    </pattern>
    
    <!-- Card front base -->
    <g id="cardBase">
      <rect width="60" height="80" rx="4" ry="4" fill="white" stroke="#333" stroke-width="0.5"/>
      <rect x="3" y="3" width="54" height="74" rx="2" ry="2" fill="none" stroke="#ddd" stroke-width="0.5"/>
    </g>
    
    <!-- Card suits -->
    <g id="heartSymbol" fill="#ff0000">
      <path d="M0,0 C-3,-3 -6,-1 -6,2 C-6,5 -3,7 0,10 C3,7 6,5 6,2 C6,-1 3,-3 0,0 Z"/>
    </g>
    
    <g id="diamondSymbol" fill="#ff0000">
      <path d="M0,0 L4,7 L0,14 L-4,7 Z"/>
    </g>
    
    <g id="clubSymbol" fill="#000000">
      <path d="M0,2 C0,0 -2,-2 -4,-2 C-6,-2 -8,0 -7,2 C-7,4 -5,6 -3,6 C-3,6 -3,9 -5,9 L5,9 C3,9 3,6 3,6 C5,6 7,4 7,2 C8,0 6,-2 4,-2 C2,-2 0,0 0,2 Z"/>
    </g>
    
    <g id="spadeSymbol" fill="#000000">
      <path d="M0,0 C0,0 -8,9 -6,13 C-4,17 0,17 0,13 L0,13 C0,17 4,17 6,13 C8,9 0,0 0,0 Z"/>
    </g>
    
    <!-- Chip base -->
    <g id="chipBase">
      <circle r="20" stroke="#333" stroke-width="0.5"/>
      <circle r="18" fill="none" stroke="white" stroke-width="0.5" stroke-opacity="0.5"/>
      <circle r="16" fill="none" stroke="white" stroke-width="0.5" stroke-opacity="0.3"/>
      <path d="M-18,0 A18,18 0 0,1 18,0" fill="none" stroke="white" stroke-width="1" stroke-opacity="0.7" transform="rotate(0)"/>
      <path d="M-18,0 A18,18 0 0,1 18,0" fill="none" stroke="white" stroke-width="1" stroke-opacity="0.7" transform="rotate(60)"/>
      <path d="M-18,0 A18,18 0 0,1 18,0" fill="none" stroke="white" stroke-width="1" stroke-opacity="0.7" transform="rotate(120)"/>
    </g>
    
    <!-- Lighting effects -->
    <radialGradient id="tableLight" cx="50%" cy="40%" r="70%" fx="50%" fy="35%">
      <stop offset="0%" stop-color="#fff" stop-opacity="0.1"/>
      <stop offset="100%" stop-color="#000" stop-opacity="0.3"/>
    </radialGradient>
    
    <!-- Wood texture for table rim -->
    <linearGradient id="woodGrain" x1="0%" y1="0%" x2="100%" y2="10%">
      <stop offset="0%" stop-color="#8B4513"/>
      <stop offset="20%" stop-color="#A0522D"/>
      <stop offset="40%" stop-color="#8B4513"/>
      <stop offset="60%" stop-color="#A0522D"/>
      <stop offset="80%" stop-color="#8B4513"/>
      <stop offset="100%" stop-color="#A0522D"/>
    </linearGradient>
  </defs>
  
  <!-- Main table -->
  <g id="blackjackTable">
    <!-- Table rim -->
    <ellipse cx="400" cy="370" rx="380" ry="220" fill="url(#woodGrain)" stroke="#5D4037" stroke-width="5"/>
    
    <!-- Table felt -->
    <ellipse cx="400" cy="360" rx="350" ry="190" fill="url(#feltTexture)"/>
    
    <!-- Table lighting effect -->
    <ellipse cx="400" cy="360" rx="350" ry="190" fill="url(#tableLight)" opacity="0.7"/>
    
    <!-- Dealer area -->
    <path d="M250,190 Q400,150 550,190" stroke="#FFC107" stroke-width="2" fill="none" stroke-dasharray="5,3"/>
    <text x="400" y="165" text-anchor="middle" fill="#FFC107" font-family="Arial" font-size="12">DEALER</text>
    
    <!-- Betting circles -->
    <g id="bettingPositions">
      <g transform="translate(250, 350)">
        <circle r="40" fill="none" stroke="#FFC107" stroke-width="2"/>
        <text x="0" y="-50" text-anchor="middle" fill="#FFC107" font-family="Arial" font-size="10">BLACKJACK PAYS 3 TO 2</text>
      </g>
      
      <g transform="translate(350, 380)">
        <circle r="40" fill="none" stroke="#FFC107" stroke-width="2"/>
        <text x="0" y="-50" text-anchor="middle" fill="#FFC107" font-family="Arial" font-size="10">BLACKJACK PAYS 3 TO 2</text>
      </g>
      
      <g transform="translate(450, 380)">
        <circle r="40" fill="none" stroke="#FFC107" stroke-width="2"/>
        <text x="0" y="-50" text-anchor="middle" fill="#FFC107" font-family="Arial" font-size="10">BLACKJACK PAYS 3 TO 2</text>
      </g>
      
      <g transform="translate(550, 350)">
        <circle r="40" fill="none" stroke="#FFC107" stroke-width="2"/>
        <text x="0" y="-50" text-anchor="middle" fill="#FFC107" font-family="Arial" font-size="10">BLACKJACK PAYS 3 TO 2</text>
      </g>
    </g>
    
    <!-- Insurance line -->
    <path d="M200,230 Q400,190 600,230" stroke="#FFC107" stroke-width="1" fill="none"/>
    <text x="400" y="205" text-anchor="middle" fill="#FFC107" font-family="Arial" font-size="10">INSURANCE PAYS 2 TO 1</text>
    
    <!-- Table rules -->
    <text x="400" y="450" text-anchor="middle" fill="#FFC107" font-family="Arial" font-size="14" font-weight="bold">DEALER MUST STAND ON 17 AND DRAW TO 16</text>
    
    <!-- Logo/branding -->
    <g transform="translate(400, 80)">
      <rect x="-80" y="-25" width="160" height="50" rx="10" ry="10" fill="#000" opacity="0.7"/>
      <text x="0" y="0" text-anchor="middle" dominant-baseline="middle" fill="#FFC107" font-family="Arial" font-size="24" font-weight="bold">CLASSIC BLACKJACK</text>
    </g>
  </g>
  
  <!-- Dealer's cards (one face down, one face up) -->
  <g id="dealerCards" transform="translate(400, 210)">
    <!-- Face down card -->
    <g transform="translate(-30, 0) rotate(-5)">
      <use xlink:href="#cardBase"/>
      <rect x="0" y="0" width="60" height="80" rx="4" ry="4" fill="url(#cardBack)"/>
    </g>
    
    <!-- Face up card (Ace of Spades) -->
    <g transform="translate(30, 0) rotate(5)">
      <use xlink:href="#cardBase"/>
      <text x="5" y="18" font-family="Arial" font-size="16" font-weight="bold">A</text>
      <use xlink:href="#spadeSymbol" transform="translate(10, 35) scale(0.8)"/>
      <text x="55" y="75" font-family="Arial" font-size="16" font-weight="bold" text-anchor="end">A</text>
      <use xlink:href="#spadeSymbol" transform="translate(50, 60) scale(0.8)"/>
      <use xlink:href="#spadeSymbol" transform="translate(30, 40) scale(1.5)"/>
    </g>
  </g>
  
  <!-- Player position 1 cards and chips -->
  <g id="player1" transform="translate(250, 350)">
    <!-- Cards -->
    <g transform="translate(0, -20)">
      <g transform="translate(-20, 0) rotate(-10)">
        <use xlink:href="#cardBase"/>
        <text x="5" y="18" font-family="Arial" font-size="16" font-weight="bold" fill="#ff0000">10</text>
        <use xlink:href="#heartSymbol" transform="translate(10, 35) scale(0.8)"/>
        <text x="55" y="75" font-family="Arial" font-size="16" font-weight="bold" fill="#ff0000" text-anchor="end">10</text>
        <use xlink:href="#heartSymbol" transform="translate(50, 60) scale(0.8)"/>
        <!-- Pattern of hearts -->
        <g transform="translate(30, 40) scale(0.4)">
          <use xlink:href="#heartSymbol" transform="translate(-30, -30)"/>
          <use xlink:href="#heartSymbol" transform="translate(0, -30)"/>
          <use xlink:href="#heartSymbol" transform="translate(30, -30)"/>
          <use xlink:href="#heartSymbol" transform="translate(-30, 0)"/>
          <use xlink:href="#heartSymbol" transform="translate(0, 0)"/>
          <use xlink:href="#heartSymbol" transform="translate(30, 0)"/>
          <use xlink:href="#heartSymbol" transform="translate(-30, 30)"/>
          <use xlink:href="#heartSymbol" transform="translate(0, 30)"/>
          <use xlink:href="#heartSymbol" transform="translate(30, 30)"/>
        </g>
      </g>
      
      <g transform="translate(20, 0) rotate(10)">
        <use xlink:href="#cardBase"/>
        <text x="5" y="18" font-family="Arial" font-size="16" font-weight="bold">Q</text>
        <use xlink:href="#spadeSymbol" transform="translate(10, 35) scale(0.8)"/>
        <text x="55" y="75" font-family="Arial" font-size="16" font-weight="bold" text-anchor="end">Q</text>
        <use xlink:href="#spadeSymbol" transform="translate(50, 60) scale(0.8)"/>
        <!-- Queen figure (simplified) -->
        <g transform="translate(30, 40)">
          <ellipse cx="0" cy="-10" rx="8" ry="10" fill="none" stroke="#000" stroke-width="0.5"/>
          <path d="M-8,0 Q-10,15 0,20 Q10,15 8,0" fill="none" stroke="#000" stroke-width="0.5"/>
          <path d="M-8,0 Q0,-5 8,0" fill="none" stroke="#000" stroke-width="0.5"/>
          <path d="M-3,-15 L3,-15 M-5,-5 L5,-5" stroke="#000" stroke-width="0.5"/>
        </g>
      </g>
    </g>
    
    <!-- Chips -->
    <g transform="translate(0, 60)">
      <g transform="translate(0, 0)">
        <use xlink:href="#chipBase" fill="#ff0000"/>
        <text x="0" y="5" text-anchor="middle" fill="white" font-family="Arial" font-size="14" font-weight="bold">5</text>
      </g>
      <g transform="translate(0, -4)">
        <use xlink:href="#chipBase" fill="#0000ff"/>
        <text x="0" y="5" text-anchor="middle" fill="white" font-family="Arial" font-size="14" font-weight="bold">10</text>
      </g>
      <g transform="translate(0, -8)">
        <use xlink:href="#chipBase" fill="#00aa00"/>
        <text x="0" y="5" text-anchor="middle" fill="white" font-family="Arial" font-size="14" font-weight="bold">25</text>
      </g>
    </g>
  </g>
  
  <!-- Player position 3 cards and chips -->
  <g id="player3" transform="translate(450, 380)">
    <!-- Cards -->
    <g transform="translate(0, -20)">
      <g transform="translate(-20, 0) rotate(-10)">
        <use xlink:href="#cardBase"/>
        <text x="5" y="18" font-family="Arial" font-size="16" font-weight="bold" fill="#ff0000">7</text>
        <use xlink:href="#diamondSymbol" transform="translate(10, 35) scale(0.8)"/>
        <text x="55" y="75" font-family="Arial" font-size="16" font-weight="bold" fill="#ff0000" text-anchor="end">7</text>
        <use xlink:href="#diamondSymbol" transform="translate(50, 60) scale(0.8)"/>
        <!-- Pattern of diamonds -->
        <g transform="translate(30, 40) scale(0.5)">
          <use xlink:href="#diamondSymbol" transform="translate(0, -30)"/>
          <use xlink:href="#diamondSymbol" transform="translate(-20, -10)"/>
          <use xlink:href="#diamondSymbol" transform="translate(20, -10)"/>
          <use xlink:href="#diamondSymbol" transform="translate(-20, 10)"/>
          <use xlink:href="#diamondSymbol" transform="translate(20, 10)"/>
          <use xlink:href="#diamondSymbol" transform="translate(0, 30)"/>
        </g>
      </g>
      
      <g transform="translate(20, 0) rotate(10)">
        <use xlink:href="#cardBase"/>
        <text x="5" y="18" font-family="Arial" font-size="16" font-weight="bold">8</text>
        <use xlink:href="#clubSymbol" transform="translate(10, 35) scale(0.8)"/>
        <text x="55" y="75" font-family="Arial" font-size="16" font-weight="bold" text-anchor="end">8</text>
        <use xlink:href="#clubSymbol" transform="translate(50, 60) scale(0.8)"/>
        <!-- Pattern of clubs -->
        <g transform="translate(30, 40) scale(0.5)">
          <use xlink:href="#clubSymbol" transform="translate(0, -30)"/>
          <use xlink:href="#clubSymbol" transform="translate(-20, -10)"/>
          <use xlink:href="#clubSymbol" transform="translate(20, -10)"/>
          <use xlink:href="#clubSymbol" transform="translate(-20, 10)"/>
          <use xlink:href="#clubSymbol" transform="translate(20, 10)"/>
          <use xlink:href="#clubSymbol" transform="translate(0, 30)"/>
          <use xlink:href="#clubSymbol" transform="translate(0, 0)"/>
        </g>
      </g>
    </g>
    
    <!-- Chips -->
    <g transform="translate(0, 60)">
      <g transform="translate(0, 0)">
        <use xlink:href="#chipBase" fill="#ff0000"/>
        <text x="0" y="5" text-anchor="middle" fill="white" font-family="Arial" font-size="14" font-weight="bold">5</text>
      </g>
      <g transform="translate(0, -4)">
        <use xlink:href="#chipBase" fill="#ff0000"/>
        <text x="0" y="5" text-anchor="middle" fill="white" font-family="Arial" font-size="14" font-weight="bold">5</text>
      </g>
    </g>
  </g>
  
  <!-- Decorative elements -->
  <g id="decorations">
    <!-- Card suit symbols in corners -->
    <g transform="translate(100, 100) scale(2)" opacity="0.1">
      <use xlink:href="#heartSymbol"/>
    </g>
    
    <g transform="translate(700, 100) scale(2)" opacity="0.1">
      <use xlink:href="#diamondSymbol"/>
    </g>
    
    <g transform="translate(100, 500) scale(2)" opacity="0.1">
      <use xlink:href="#clubSymbol"/>
    </g>
    
    <g transform="translate(700, 500) scale(2)" opacity="0.1">
      <use xlink:href="#spadeSymbol"/>
    </g>
  </g>
</svg>
