<svg xmlns="http://www.w3.org/2000/svg" xmlns:xlink="http://www.w3.org/1999/xlink" viewBox="0 0 800 600">
  <!-- Definitions for reusable elements -->
  <defs>
    <!-- European table felt texture -->
    <pattern id="europeanFeltTexture" patternUnits="userSpaceOnUse" width="100" height="100" patternTransform="scale(0.5)">
      <rect width="100" height="100" fill="#114d29"/>
      <circle cx="10" cy="10" r="1" fill="#0a3d20" opacity="0.5"/>
      <circle cx="30" cy="30" r="1" fill="#0a3d20" opacity="0.5"/>
      <circle cx="50" cy="50" r="1" fill="#0a3d20" opacity="0.5"/>
      <circle cx="70" cy="70" r="1" fill="#0a3d20" opacity="0.5"/>
      <circle cx="90" cy="90" r="1" fill="#0a3d20" opacity="0.5"/>
      <circle cx="20" cy="80" r="1" fill="#0a3d20" opacity="0.5"/>
      <circle cx="40" cy="60" r="1" fill="#0a3d20" opacity="0.5"/>
      <circle cx="60" cy="40" r="1" fill="#0a3d20" opacity="0.5"/>
      <circle cx="80" cy="20" r="1" fill="#0a3d20" opacity="0.5"/>
      <path d="M0,25 L100,25 M0,75 L100,75 M25,0 L25,100 M75,0 L75,100" stroke="#0a3d20" stroke-width="0.2" opacity="0.3"/>
    </pattern>
    
    <!-- European card back pattern -->
    <pattern id="euroCardBack" patternUnits="userSpaceOnUse" width="60" height="80">
      <rect width="60" height="80" fill="#00529b"/>
      <rect x="1" y="1" width="58" height="78" fill="#00529b" stroke="#003366" stroke-width="0.5"/>
      <rect x="3" y="3" width="54" height="74" fill="none" stroke="#b79a5b" stroke-width="0.5"/>
      <rect x="5" y="5" width="50" height="70" fill="none" stroke="#b79a5b" stroke-width="0.2"/>
      <!-- European-style pattern -->
      <path d="M30,10 L30,70 M10,40 L50,40" stroke="#b79a5b" stroke-width="0.5"/>
      <circle cx="30" cy="40" r="15" fill="none" stroke="#b79a5b" stroke-width="0.5"/>
      <circle cx="30" cy="40" r="10" fill="none" stroke="#b79a5b" stroke-width="0.3"/>
      <!-- European stars -->
      <g fill="#b79a5b">
        <path d="M30,20 L31,23 L34,23 L32,25 L33,28 L30,26 L27,28 L28,25 L26,23 L29,23 Z"/>
        <path d="M30,60 L31,63 L34,63 L32,65 L33,68 L30,66 L27,68 L28,65 L26,63 L29,63 Z"/>
        <path d="M20,40 L21,43 L24,43 L22,45 L23,48 L20,46 L17,48 L18,45 L16,43 L19,43 Z"/>
        <path d="M40,40 L41,43 L44,43 L42,45 L43,48 L40,46 L37,48 L38,45 L36,43 L39,43 Z"/>
      </g>
    </pattern>
    
    <!-- Card front base -->
    <g id="euroCardBase">
      <rect width="60" height="80" rx="4" ry="4" fill="white" stroke="#333" stroke-width="0.5"/>
      <rect x="2" y="2" width="56" height="76" rx="3" ry="3" fill="none" stroke="#888" stroke-width="0.3"/>
      <rect x="4" y="4" width="52" height="72" rx="2" ry="2" fill="none" stroke="#ccc" stroke-width="0.1"/>
    </g>
    
    <!-- Card suits with European styling -->
    <g id="euroHeartSymbol" fill="#e30613">
      <path d="M0,0 C-3,-3 -6,-1 -6,2 C-6,5 -3,7 0,10 C3,7 6,5 6,2 C6,-1 3,-3 0,0 Z"/>
      <path d="M0,0 C-3,-3 -6,-1 -6,2 C-6,5 -3,7 0,10 C3,7 6,5 6,2 C6,-1 3,-3 0,0 Z" fill="none" stroke="#c30000" stroke-width="0.2"/>
    </g>
    
    <g id="euroDiamondSymbol" fill="#e30613">
      <path d="M0,0 L4,7 L0,14 L-4,7 Z"/>
      <path d="M0,0 L4,7 L0,14 L-4,7 Z" fill="none" stroke="#c30000" stroke-width="0.2"/>
    </g>
    
    <g id="euroClubSymbol" fill="#000000">
      <path d="M0,2 C0,0 -2,-2 -4,-2 C-6,-2 -8,0 -7,2 C-7,4 -5,6 -3,6 C-3,6 -3,9 -5,9 L5,9 C3,9 3,6 3,6 C5,6 7,4 7,2 C8,0 6,-2 4,-2 C2,-2 0,0 0,2 Z"/>
      <path d="M0,2 C0,0 -2,-2 -4,-2 C-6,-2 -8,0 -7,2 C-7,4 -5,6 -3,6 C-3,6 -3,9 -5,9 L5,9 C3,9 3,6 3,6 C5,6 7,4 7,2 C8,0 6,-2 4,-2 C2,-2 0,0 0,2 Z" fill="none" stroke="#333" stroke-width="0.2"/>
    </g>
    
    <g id="euroSpadeSymbol" fill="#000000">
      <path d="M0,0 C0,0 -8,9 -6,13 C-4,17 0,17 0,13 L0,13 C0,17 4,17 6,13 C8,9 0,0 0,0 Z"/>
      <path d="M0,0 C0,0 -8,9 -6,13 C-4,17 0,17 0,13 L0,13 C0,17 4,17 6,13 C8,9 0,0 0,0 Z" fill="none" stroke="#333" stroke-width="0.2"/>
    </g>
    
    <!-- European style chip designs -->
    <g id="euroChipBase">
      <circle r="20" stroke="#333" stroke-width="0.5"/>
      <circle r="18" fill="none" stroke="#b79a5b" stroke-width="0.5"/>
      <circle r="16" fill="none" stroke="#b79a5b" stroke-width="0.2"/>
      <!-- European-style edge pattern -->
      <path d="M-18,0 A18,18 0 0,1 18,0" fill="none" stroke="#b79a5b" stroke-width="0.5" transform="rotate(0)"/>
      <path d="M-18,0 A18,18 0 0,1 18,0" fill="none" stroke="#b79a5b" stroke-width="0.5" transform="rotate(30)"/>
      <path d="M-18,0 A18,18 0 0,1 18,0" fill="none" stroke="#b79a5b" stroke-width="0.5" transform="rotate(60)"/>
      <path d="M-18,0 A18,18 0 0,1 18,0" fill="none" stroke="#b79a5b" stroke-width="0.5" transform="rotate(90)"/>
      <path d="M-18,0 A18,18 0 0,1 18,0" fill="none" stroke="#b79a5b" stroke-width="0.5" transform="rotate(120)"/>
      <path d="M-18,0 A18,18 0 0,1 18,0" fill="none" stroke="#b79a5b" stroke-width="0.5" transform="rotate(150)"/>
    </g>
    
    <!-- Lighting effects -->
    <radialGradient id="euroTableLight" cx="50%" cy="40%" r="70%" fx="50%" fy="35%">
      <stop offset="0%" stop-color="#fff" stop-opacity="0.1"/>
      <stop offset="100%" stop-color="#000" stop-opacity="0.4"/>
    </radialGradient>
    
    <!-- European classical wood texture for table rim -->
    <linearGradient id="euroWood" x1="0%" y1="0%" x2="100%" y2="0%">
      <stop offset="0%" stop-color="#6d4c33"/>
      <stop offset="20%" stop-color="#7d5c43"/>
      <stop offset="40%" stop-color="#6d4c33"/>
      <stop offset="60%" stop-color="#7d5c43"/>
      <stop offset="80%" stop-color="#6d4c33"/>
      <stop offset="100%" stop-color="#7d5c43"/>
    </linearGradient>
    
    <!-- Brass trim pattern -->
    <pattern id="brassTrim" patternUnits="userSpaceOnUse" width="20" height="20">
      <rect width="20" height="20" fill="#b79a5b"/>
      <path d="M0,10 L20,10 M10,0 L10,20" stroke="#9a8348" stroke-width="0.5"/>
      <circle cx="10" cy="10" r="5" fill="none" stroke="#9a8348" stroke-width="0.5"/>
    </pattern>
    
    <!-- European Fleur-de-lis pattern -->
    <g id="fleurDeLis" fill="#b79a5b">
      <path d="M0,-5 L0,5 M-3,0 L3,0" stroke="#b79a5b" stroke-width="0.5"/>
      <path d="M0,-5 C1,-4 3,-4 3,-2 C3,0 1,0 0,2 C-1,0 -3,0 -3,-2 C-3,-4 -1,-4 0,-5 Z"/>
      <path d="M0,2 C0,3 1,4 0,5 C-1,4 0,3 0,2 Z"/>
    </g>
    
    <!-- European style ornamental crest -->
    <g id="europeanCrest">
      <path d="M0,0 L-20,-15 L-25,0 L-20,15 L0,30 L20,15 L25,0 L20,-15 Z" fill="#00529b"/>
      <path d="M0,0 L-20,-15 L-25,0 L-20,15 L0,30 L20,15 L25,0 L20,-15 Z" fill="none" stroke="#b79a5b" stroke-width="1"/>
      <circle cx="0" cy="5" r="12" fill="none" stroke="#b79a5b" stroke-width="0.5"/>
      <use xlink:href="#fleurDeLis" transform="translate(0,5) scale(1.2)"/>
    </g>
  </defs>
  
  <!-- Main table background -->
  <rect width="800" height="600" fill="#1a1a1a"/>
  
  <!-- European-style table -->
  <g id="euroBlackjackTable">
    <!-- Classical European table rim -->
    <ellipse cx="400" cy="370" rx="380" ry="220" fill="url(#euroWood)" stroke="#b79a5b" stroke-width="3"/>
    <ellipse cx="400" cy="370" rx="365" ry="205" fill="none" stroke="#b79a5b" stroke-width="1"/>
    
    <!-- European green table felt -->
    <ellipse cx="400" cy="360" rx="350" ry="190" fill="url(#europeanFeltTexture)"/>
    
    <!-- Table lighting effect -->
    <ellipse cx="400" cy="360" rx="350" ry="190" fill="url(#euroTableLight)" opacity="0.7"/>
    
    <!-- Brass inlay for European table -->
    <path d="M200,360 L600,360" stroke="url(#brassTrim)" stroke-width="2" fill="none" opacity="0.7"/>
    
    <!-- Dealer area -->
    <path d="M250,190 Q400,150 550,190" stroke="#b79a5b" stroke-width="2" fill="none"/>
    <text x="400" y="160" text-anchor="middle" fill="#b79a5b" font-family="Times New Roman, serif" font-size="14" font-weight="bold">CROUPIER</text>
    
    <!-- European betting positions -->
    <g id="euroBettingPositions">
      <g transform="translate(200, 350)">
        <circle r="40" fill="none" stroke="#b79a5b" stroke-width="1"/>
        <circle r="42" fill="none" stroke="#b79a5b" stroke-width="0.5" stroke-dasharray="2,2"/>
        <text x="0" y="-50" text-anchor="middle" fill="#b79a5b" font-family="Times New Roman, serif" font-size="12">BLACKJACK PAYS 3 TO 2</text>
      </g>
      
      <g transform="translate(325, 380)">
        <circle r="40" fill="none" stroke="#b79a5b" stroke-width="1"/>
        <circle r="42" fill="none" stroke="#b79a5b" stroke-width="0.5" stroke-dasharray="2,2"/>
        <text x="0" y="-50" text-anchor="middle" fill="#b79a5b" font-family="Times New Roman, serif" font-size="12">BLACKJACK PAYS 3 TO 2</text>
      </g>
      
      <g transform="translate(475, 380)">
        <circle r="40" fill="none" stroke="#b79a5b" stroke-width="1"/>
        <circle r="42" fill="none" stroke="#b79a5b" stroke-width="0.5" stroke-dasharray="2,2"/>
        <text x="0" y="-50" text-anchor="middle" fill="#b79a5b" font-family="Times New Roman, serif" font-size="12">BLACKJACK PAYS 3 TO 2</text>
      </g>
      
      <g transform="translate(600, 350)">
        <circle r="40" fill="none" stroke="#b79a5b" stroke-width="1"/>
        <circle r="42" fill="none" stroke="#b79a5b" stroke-width="0.5" stroke-dasharray="2,2"/>
        <text x="0" y="-50" text-anchor="middle" fill="#b79a5b" font-family="Times New Roman, serif" font-size="12">BLACKJACK PAYS 3 TO 2</text>
      </g>
    </g>
    
    <!-- European insurance line -->
    <path d="M200,230 Q400,190 600,230" stroke="#b79a5b" stroke-width="1" fill="none"/>
    <path d="M200,232 Q400,192 600,232" stroke="#b79a5b" stroke-width="0.5" fill="none"/>
    <text x="400" y="205" text-anchor="middle" fill="#b79a5b" font-family="Times New Roman, serif" font-size="12">INSURANCE PAYS 2 TO 1</text>
    
    <!-- European blackjack rules -->
    <text x="400" y="440" text-anchor="middle" fill="#b79a5b" font-family="Times New Roman, serif" font-size="14" font-weight="bold">EUROPEAN RULES • DEALER STANDS ON ALL 17s</text>
    <text x="400" y="460" text-anchor="middle" fill="#b79a5b" font-family="Times New Roman, serif" font-size="14" font-weight="bold">NO HOLE CARD • DOUBLE ON HARD 9-11 ONLY</text>
    
    <!-- European style logo/branding -->
    <g transform="translate(400, 80)">
      <rect x="-130" y="-35" width="260" height="70" rx="5" ry="5" fill="#00529b" stroke="#b79a5b" stroke-width="2"/>
      <rect x="-125" y="-30" width="250" height="60" rx="3" ry="3" fill="none" stroke="#b79a5b" stroke-width="0.5"/>
      <text x="0" y="-5" text-anchor="middle" dominant-baseline="middle" fill="#b79a5b" font-family="Times New Roman, serif" font-size="28" font-weight="bold">EUROPEAN</text>
      <text x="0" y="25" text-anchor="middle" dominant-baseline="middle" fill="#b79a5b" font-family="Times New Roman, serif" font-size="24" font-weight="bold">BLACKJACK</text>
    </g>
    
    <!-- European style corner emblems -->
    <use xlink:href="#europeanCrest" transform="translate(150, 200)"/>
    <use xlink:href="#europeanCrest" transform="translate(650, 200)"/>
    <use xlink:href="#fleurDeLis" transform="translate(150, 450) scale(2)"/>
    <use xlink:href="#fleurDeLis" transform="translate(650, 450) scale(2)"/>
  </g>
  
  <!-- Dealer's cards (European style - no hole card) -->
  <g id="euroDealerCards" transform="translate(400, 210)">
    <!-- Only one face up card in European style -->
    <g transform="translate(0, 0) rotate(0)">
      <use xlink:href="#euroCardBase"/>
      <text x="5" y="18" font-family="Times New Roman, serif" font-size="16" font-weight="bold">J</text>
      <use xlink:href="#euroSpadeSymbol" transform="translate(10, 35) scale(0.8)"/>
      <text x="55" y="75" font-family="Times New Roman, serif" font-size="16" font-weight="bold" text-anchor="end">J</text>
      <use xlink:href="#euroSpadeSymbol" transform="translate(50, 60) scale(0.8)"/>
      
      <!-- Jack figure (European style) -->
      <g transform="translate(30, 40)">
        <rect x="-10" y="-15" width="20" height="30" rx="2" ry="2" fill="none" stroke="#000" stroke-width="0.3"/>
        <path d="M-5,-15 L5,-15 M-7,-10 L7,-10" stroke="#000" stroke-width="0.3"/>
        <circle cx="0" cy="-5" r="5" fill="none" stroke="#000" stroke-width="0.3"/>
        <path d="M-5,5 L5,5 M-5,10 L5,10" stroke="#000" stroke-width="0.3"/>
        <path d="M0,-10 L0,15" stroke="#000" stroke-width="0.3"/>
      </g>
    </g>
  </g>
  
  <!-- Player position 1 cards and chips (European style) -->
  <g id="euroPlayer1" transform="translate(200, 350)">
    <!-- European styled Cards -->
    <g transform="translate(0, -20)">
      <g transform="translate(-20, 0) rotate(-10)">
        <use xlink:href="#euroCardBase"/>
        <text x="5" y="18" font-family="Times New Roman, serif" font-size="16" font-weight="bold" fill="#e30613">10</text>
        <use xlink:href="#euroDiamondSymbol" transform="translate(10, 35) scale(0.8)"/>
        <text x="55" y="75" font-family="Times New Roman, serif" font-size="16" font-weight="bold" fill="#e30613" text-anchor="end">10</text>
        <use xlink:href="#euroDiamondSymbol" transform="translate(50, 60) scale(0.8)"/>
        
        <!-- Pattern of diamonds (European style) -->
        <g transform="translate(30, 40) scale(0.4)">
          <use xlink:href="#euroDiamondSymbol" transform="translate(-30, -30)"/>
          <use xlink:href="#euroDiamondSymbol" transform="translate(0, -30)"/>
          <use xlink:href="#euroDiamondSymbol" transform="translate(30, -30)"/>
          <use xlink:href="#euroDiamondSymbol" transform="translate(-30, 0)"/>
          <use xlink:href="#euroDiamondSymbol" transform="translate(0, 0)"/>
          <use xlink:href="#euroDiamondSymbol" transform="translate(30, 0)"/>
          <use xlink:href="#euroDiamondSymbol" transform="translate(-30, 30)"/>
          <use xlink:href="#euroDiamondSymbol" transform="translate(0, 30)"/>
          <use xlink:href="#euroDiamondSymbol" transform="translate(30, 30)"/>
        </g>
      </g>
      
      <g transform="translate(20, 0) rotate(10)">
        <use xlink:href="#euroCardBase"/>
        <text x="5" y="18" font-family="Times New Roman, serif" font-size="16" font-weight="bold">A</text>
        <use xlink:href="#euroSpadeSymbol" transform="translate(10, 35) scale(0.8)"/>
        <text x="55" y="75" font-family="Times New Roman, serif" font-size="16" font-weight="bold" text-anchor="end">A</text>
        <use xlink:href="#euroSpadeSymbol" transform="translate(50, 60) scale(0.8)"/>
        
        <!-- European style ace design -->
        <g transform="translate(30, 40)">
          <use xlink:href="#euroSpadeSymbol" transform="scale(1.5)"/>
          <path d="M0,-8 L0,8" stroke="#000" stroke-width="0.5" stroke-dasharray="1,1"/>
        </g>
      </g>
    </g>
    
    <!-- European Chips -->
    <g transform="translate(0, 60)">
      <g transform="translate(0, 0)">
        <use xlink:href="#euroChipBase" fill="#d40000"/>
        <text x="0" y="5" text-anchor="middle" fill="white" font-family="Times New Roman, serif" font-size="14" font-weight="bold">5€</text>
      </g>
      <g transform="translate(0, -4)">
        <use xlink:href="#euroChipBase" fill="#0055a4"/>
        <text x="0" y="5" text-anchor="middle" fill="white" font-family="Times New Roman, serif" font-size="14" font-weight="bold">10€</text>
      </g>
      <g transform="translate(0, -8)">
        <use xlink:href="#euroChipBase" fill="#006600"/>
        <text x="0" y="5" text-anchor="middle" fill="white" font-family="Times New Roman, serif" font-size="14" font-weight="bold">25€</text>
      </g>
    </g>
  </g>
  
  <!-- Player position 3 cards and chips -->
  <g id="euroPlayer3" transform="translate(475, 380)">
    <!-- European styled Cards -->
    <g transform="translate(0, -20)">
      <g transform="translate(-20, 0) rotate(-10)">
        <use xlink:href="#euroCardBase"/>
        <text x="5" y="18" font-family="Times New Roman, serif" font-size="16" font-weight="bold">7</text>
        <use xlink:href="#euroClubSymbol" transform="translate(10, 35) scale(0.8)"/>
        <text x="55" y="75" font-family="Times New Roman, serif" font-size="16" font-weight="bold" text-anchor="end">7</text>
        <use xlink:href="#euroClubSymbol" transform="translate(50, 60) scale(0.8)"/>
        
        <!-- Pattern of clubs (European style) -->
        <g transform="translate(30, 40) scale(0.5)">
          <use xlink:href="#euroClubSymbol" transform="translate(0, -25)"/>
          <use xlink:href="#euroClubSymbol" transform="translate(-15, -8)"/>
          <use xlink:href="#euroClubSymbol" transform="translate(15, -8)"/>
          <use xlink:href="#euroClubSymbol" transform="translate(0, 0)"/>
          <use xlink:href="#euroClubSymbol" transform="translate(-15, 8)"/>
          <use xlink:href="#euroClubSymbol" transform="translate(15, 8)"/>
          <use xlink:href="#euroClubSymbol" transform="translate(0, 25)"/>
        </g>
      </g>
      
      <g transform="translate(20, 0) rotate(10)">
        <use xlink:href="#euroCardBase"/>
        <text x="5" y="18" font-family="Times New Roman, serif" font-size="16" font-weight="bold">8</text>
        <use xlink:href="#euroClubSymbol" transform="translate(10, 35) scale(0.8)"/>
        <text x="55" y="75" font-family="Times New Roman, serif" font-size="16" font-weight="bold" text-anchor="end">8</text>
        <use xlink:href="#euroClubSymbol" transform="translate(50, 60) scale(0.8)"/>
        
        <!-- Pattern of clubs (European style) -->
        <g transform="translate(30, 40) scale(0.5)">
          <use xlink:href="#euroClubSymbol" transform="translate(0, -30)"/>
          <use xlink:href="#euroClubSymbol" transform="translate(-20, -20)"/>
          <use xlink:href="#euroClubSymbol" transform="translate(20, -20)"/>
          <use xlink:href="#euroClubSymbol" transform="translate(-20, 0)"/>
          <use xlink:href="#euroClubSymbol" transform="translate(20, 0)"/>
          <use xlink:href="#euroClubSymbol" transform="translate(-20, 20)"/>
          <use xlink:href="#euroClubSymbol" transform="translate(20, 20)"/>
          <use xlink:href="#euroClubSymbol" transform="translate(0, 30)"/>
        </g>
      </g>
    </g>
    
    <!-- European chips -->
    <g transform="translate(0, 60)">
      <g transform="translate(0, 0)">
        <use xlink:href="#euroChipBase" fill="#0055a4"/>
        <text x="0" y="5" text-anchor="middle" fill="white" font-family="Times New Roman, serif" font-size="14" font-weight="bold">10€</text>
      </g>
      <g transform="translate(0, -4)">
        <use xlink:href="#euroChipBase" fill="#d40000"/>
        <text x="0" y="5" text-anchor="middle" fill="white" font-family="Times New Roman, serif" font-size="14" font-weight="bold">5€</text>
      </g>
    </g>
  </g>
  
  <!-- European playing decks - showing only 2 decks as per European rules -->
  <g id="euroDecks" transform="translate(530, 200)">
    <g transform="translate(0, 0)">
      <use xlink:href="#euroCardBase"/>
      <rect x="0" y="0" width="60" height="80" rx="4" ry="4" fill="url(#euroCardBack)"/>
    </g>
    <g transform="translate(5, -3)">
      <use xlink:href="#euroCardBase"/>
      <rect x="0" y="0" width="60" height="80" rx="4" ry="4" fill="url(#euroCardBack)"/>
    </g>
  </g>
  
  <!-- European-styled decorative elements -->
  <g id="euroDecorations" opacity="0.1">
    <use xlink:href="#fleurDeLis" transform="translate(200, 100) scale(3)"/>
    <use xlink:href="#fleurDeLis" transform="translate(600, 100) scale(3)"/>
    <use xlink:href="#fleurDeLis" transform="translate(200, 550) scale(3)"/>
    <use xlink:href="#fleurDeLis" transform="translate(600, 550) scale(3)"/>
    
    <!-- European style border -->
    <rect x="10" y="10" width="780" height="580" rx="5" ry="5" fill="none" stroke="#b79a5b" stroke-width="1"/>
    <rect x="20" y="20" width="760" height="560" rx="5" ry="5" fill="none" stroke="#b79a5b" stroke-width="0.5"/>
  </g>
  
  <!-- Ambient European casino lighting -->
  <g opacity="0.3">
    <ellipse cx="400" cy="300" rx="350" ry="200" fill="url(#euroTableLight)"/>
    <ellipse cx="250" cy="200" rx="100" ry="50" fill="white" opacity="0.05"/>
    <ellipse cx="550" cy="200" rx="100" ry="50" fill="white" opacity="0.05"/>
  </g>
</svg>
