<svg xmlns="http://www.w3.org/2000/svg" viewBox="0 0 240 240" width="240" height="240">
    <defs>
        <!-- Gradients -->
        <linearGradient id="badgeGradient" x1="0%" y1="0%" x2="100%" y2="100%">
            <stop offset="0%" stop-color="#3498db" />
            <stop offset="100%" stop-color="#2980b9" />
        </linearGradient>

        <linearGradient id="borderGradient" x1="0%" y1="0%" x2="100%" y2="100%">
            <stop offset="0%" stop-color="#3498db" />
            <stop offset="50%" stop-color="#2980b9" />
            <stop offset="100%" stop-color="#3498db" />
        </linearGradient>

        <linearGradient id="warningGradient" x1="0%" y1="0%" x2="100%" y2="100%">
            <stop offset="0%" stop-color="#f39c12" />
            <stop offset="100%" stop-color="#e67e22" />
        </linearGradient>

        <linearGradient id="textGradient" x1="0%" y1="0%" x2="100%" y2="0%">
            <stop offset="0%" stop-color="#ecf0f1" />
            <stop offset="100%" stop-color="#bdc3c7" />
        </linearGradient>

        <filter id="glow" x="-20%" y="-20%" width="140%" height="140%">
            <feGaussianBlur stdDeviation="3" result="blur" />
            <feComposite in="SourceGraphic" in2="blur" operator="over" />
        </filter>

        <filter id="dropShadow" x="-20%" y="-20%" width="140%" height="140%">
            <feGaussianBlur in="SourceAlpha" stdDeviation="3" result="blur" />
            <feOffset in="blur" dx="2" dy="2" result="offsetBlur" />
            <feComponentTransfer>
                <feFuncA type="linear" slope="0.3" />
            </feComponentTransfer>
            <feMerge>
                <feMergeNode />
                <feMergeNode in="SourceGraphic" />
            </feMerge>
        </filter>

        <filter id="paperTexture" x="0%" y="0%" width="100%" height="100%">
            <feTurbulence type="fractalNoise" baseFrequency="0.5" numOctaves="2" result="noise" />
            <feColorMatrix type="matrix" values="0 0 0 0 0, 0 0 0 0 0, 0 0 0 0 0, 0 0 0 0.05 0" />
            <feComposite in="SourceGraphic" in2="noise" operator="in" />
        </filter>
    </defs>

    <!-- Background Circle -->
    <circle cx="120" cy="120" r="110" fill="#f8f9fa" filter="url(#dropShadow)" />

    <!-- Outer Ring -->
    <circle cx="120" cy="120" r="100" fill="none" stroke="url(#borderGradient)" stroke-width="4" />

    <!-- Inner Badge Background -->
    <circle cx="120" cy="120" r="90" fill="url(#badgeGradient)" filter="url(#paperTexture)" />

    <!-- Clock Icon -->
    <g transform="translate(120, 100)">
        <!-- Clock Face -->
        <circle cx="0" cy="0" r="40" fill="white" stroke="#2c3e50" stroke-width="2" filter="url(#dropShadow)" />

        <!-- Clock Ticks -->
        <g stroke="#2c3e50" stroke-width="2">
            <!-- Hours -->
            <line x1="0" y1="-35" x2="0" y2="-30" />
            <line x1="17.5" y1="-30.3" x2="15" y2="-26" />
            <line x1="30.3" y1="-17.5" x2="26" y2="-15" />
            <line x1="35" y1="0" x2="30" y2="0" />
            <line x1="30.3" y1="17.5" x2="26" y2="15" />
            <line x1="17.5" y1="30.3" x2="15" y2="26" />
            <line x1="0" y1="35" x2="0" y2="30" />
            <line x1="-17.5" y1="30.3" x2="-15" y2="26" />
            <line x1="-30.3" y1="17.5" x2="-26" y2="15" />
            <line x1="-35" y1="0" x2="-30" y2="0" />
            <line x1="-30.3" y1="-17.5" x2="-26" y2="-15" />
            <line x1="-17.5" y1="-30.3" x2="-15" y2="-26" />
        </g>

        <!-- Clock Hands -->
        <g stroke="#2c3e50" stroke-linecap="round">
            <!-- Hour Hand -->
            <line x1="0" y1="0" x2="0" y2="-15" stroke-width="4" />
            <!-- Minute Hand -->
            <line x1="0" y1="0" x2="15" y2="-25" stroke-width="3" />
            <!-- Center Dot -->
            <circle cx="0" cy="0" r="3" fill="#e74c3c" stroke="none" />
        </g>
    </g>

    <!-- Warning Icon -->
    <g transform="translate(60, 100)">
        <path d="M0,-25 L20,10 L-20,10 Z" fill="url(#warningGradient)" stroke="#e67e22" stroke-width="2" filter="url(#dropShadow)" />
        <text x="0" y="5" font-family="Arial, sans-serif" font-size="20" font-weight="bold" text-anchor="middle" fill="#ffffff">!</text>
    </g>

    <!-- Info Icon -->
    <g transform="translate(180, 100)">
        <circle cx="0" cy="0" r="20" fill="#3498db" stroke="#2980b9" stroke-width="2" filter="url(#dropShadow)" />
        <text x="0" y="6" font-family="Arial, sans-serif" font-size="20" font-weight="bold" text-anchor="middle" fill="#ffffff">i</text>
    </g>

    <!-- Dice with "18+" -->
    <g transform="translate(120, 35)">
        <rect x="-15" y="-15" width="30" height="30" rx="5" ry="5" fill="white" stroke="#2c3e50" stroke-width="2" filter="url(#dropShadow)" />
        <text x="0" y="5" font-family="Arial, sans-serif" font-size="14" font-weight="bold" text-anchor="middle" fill="#e74c3c">18+</text>
    </g>

    <!-- "RESPONSIBLE GAMING" Text -->
    <g transform="translate(120, 160)">
        <text x="0" y="0" font-family="Arial, sans-serif" font-size="18" font-weight="bold" text-anchor="middle" fill="#ffffff" filter="url(#glow)">RESPONSIBLE</text>
        <text x="0" y="20" font-family="Arial, sans-serif" font-size="18" font-weight="bold" text-anchor="middle" fill="#ffffff" filter="url(#glow)">GAMING</text>
    </g>

    <!-- Player Protection Icons -->
    <g transform="translate(120, 195)" opacity="0.9">
        <!-- Timer Icon -->
        <g transform="translate(-60, 0)">
            <circle cx="0" cy="0" r="10" fill="white" stroke="#2c3e50" stroke-width="1" />
            <path d="M0,-6 L0,0 L4,4" fill="none" stroke="#2c3e50" stroke-width="2" stroke-linecap="round" />
        </g>

        <!-- Money Management Icon -->
        <g transform="translate(-30, 0)">
            <rect x="-7" y="-5" width="14" height="10" rx="2" ry="2" fill="white" stroke="#2c3e50" stroke-width="1" />
            <line x1="-3" y1="0" x2="3" y2="0" stroke="#2c3e50" stroke-width="1.5" />
            <line x1="0" y1="-3" x2="0" y2="3" stroke="#2c3e50" stroke-width="1.5" />
        </g>

        <!-- Support Icon -->
        <g transform="translate(0, 0)">
            <path d="M-6,-3 C-6,-7 6,-7 6,-3 L6,1 C6,5 2,5 2,1 L2,0 L-2,0 L-2,1 C-2,5 -6,5 -6,1 Z" fill="white" stroke="#2c3e50" stroke-width="1" />
            <circle cx="0" cy="-3" r="2" fill="#2c3e50" />
        </g>

        <!-- Limits Icon -->
        <g transform="translate(30, 0)">
            <circle cx="0" cy="0" r="10" fill="white" stroke="#2c3e50" stroke-width="1" />
            <line x1="-6" y1="0" x2="6" y2="0" stroke="#e74c3c" stroke-width="2" />
        </g>

        <!-- Self-Exclusion Icon -->
        <g transform="translate(60, 0)">
            <circle cx="0" cy="0" r="10" fill="white" stroke="#2c3e50" stroke-width="1" />
            <line x1="-5" y1="-5" x2="5" y2="5" stroke="#e74c3c" stroke-width="2" />
            <line x1="5" y1="-5" x2="-5" y2="5" stroke="#e74c3c" stroke-width="2" />
        </g>
    </g>

    <!-- Circular Text Path -->
    <path id="responsibleTextPath" d="M120,30 A90,90 0 0 1 210,120 A90,90 0 0 1 120,210 A90,90 0 0 1 30,120 A90,90 0 0 1 120,30" fill="none" />

    <!-- Text Around Circle -->
    <text font-family="Arial, sans-serif" font-size="8" fill="#ecf0f1" letter-spacing="1">
        <textPath href="#responsibleTextPath" startOffset="0%">PLAY RESPONSIBLY • SET LIMITS • KNOW YOUR LIMITS • GAMING SHOULD BE FUN • TAKE BREAKS •</textPath>
    </text>
</svg>