<svg xmlns="http://www.w3.org/2000/svg" xmlns:xlink="http://www.w3.org/1999/xlink" viewBox="0 0 800 600">
  <!-- Definitions for reusable elements -->
  <defs>
    <!-- Premium table felt texture -->
    <pattern id="premiumFeltTexture" patternUnits="userSpaceOnUse" width="100" height="100" patternTransform="scale(0.5)">
      <rect width="100" height="100" fill="#1a0033"/>
      <circle cx="10" cy="10" r="1" fill="#2a0053" opacity="0.7"/>
      <circle cx="30" cy="30" r="1" fill="#2a0053" opacity="0.7"/>
      <circle cx="50" cy="50" r="1" fill="#2a0053" opacity="0.7"/>
      <circle cx="70" cy="70" r="1" fill="#2a0053" opacity="0.7"/>
      <circle cx="90" cy="90" r="1" fill="#2a0053" opacity="0.7"/>
      <circle cx="20" cy="80" r="1" fill="#2a0053" opacity="0.7"/>
      <circle cx="40" cy="60" r="1" fill="#2a0053" opacity="0.7"/>
      <circle cx="60" cy="40" r="1" fill="#2a0053" opacity="0.7"/>
      <circle cx="80" cy="20" r="1" fill="#2a0053" opacity="0.7"/>
      <path d="M0,0 L100,100 M0,100 L100,0" stroke="#3a0073" stroke-width="0.5" opacity="0.2"/>
    </pattern>
    
    <!-- Premium card back pattern -->
    <pattern id="vipCardBack" patternUnits="userSpaceOnUse" width="60" height="80">
      <rect width="60" height="80" fill="#000"/>
      <rect x="1" y="1" width="58" height="78" fill="#1a0033" stroke="#000" stroke-width="0.5"/>
      <rect x="3" y="3" width="54" height="74" fill="none" stroke="#d4af37" stroke-width="0.5"/>
      <rect x="5" y="5" width="50" height="70" fill="none" stroke="#d4af37" stroke-width="0.2"/>
      <!-- Ornate pattern -->
      <path d="M30,10 C35,15 40,15 45,20 C50,25 50,30 55,35 C50,40 50,45 45,50 C40,55 35,55 30,60 C25,55 20,55 15,50 C10,45 10,40 5,35 C10,30 10,25 15,20 C20,15 25,15 30,10 Z" fill="none" stroke="#d4af37" stroke-width="0.3"/>
      <circle cx="30" cy="35" r="15" fill="none" stroke="#d4af37" stroke-width="0.5"/>
      <circle cx="30" cy="35" r="10" fill="none" stroke="#d4af37" stroke-width="0.3"/>
      <text x="30" y="39" text-anchor="middle" fill="#d4af37" font-family="serif" font-size="10">VIP</text>
    </pattern>
    
    <!-- Card front base -->
    <g id="vipCardBase">
      <rect width="60" height="80" rx="4" ry="4" fill="white" stroke="#333" stroke-width="0.5"/>
      <rect x="2" y="2" width="56" height="76" rx="3" ry="3" fill="none" stroke="#d4af37" stroke-width="0.3"/>
      <rect x="4" y="4" width="52" height="72" rx="2" ry="2" fill="none" stroke="#d4af37" stroke-width="0.1"/>
    </g>
    
    <!-- Card suits with premium styling -->
    <g id="vipHeartSymbol" fill="#cc0000">
      <path d="M0,0 C-3,-3 -6,-1 -6,2 C-6,5 -3,7 0,10 C3,7 6,5 6,2 C6,-1 3,-3 0,0 Z"/>
      <path d="M0,0 C-3,-3 -6,-1 -6,2 C-6,5 -3,7 0,10 C3,7 6,5 6,2 C6,-1 3,-3 0,0 Z" fill="none" stroke="#880000" stroke-width="0.2"/>
    </g>
    
    <g id="vipDiamondSymbol" fill="#cc0000">
      <path d="M0,0 L4,7 L0,14 L-4,7 Z"/>
      <path d="M0,0 L4,7 L0,14 L-4,7 Z" fill="none" stroke="#880000" stroke-width="0.2"/>
    </g>
    
    <g id="vipClubSymbol" fill="#000000">
      <path d="M0,2 C0,0 -2,-2 -4,-2 C-6,-2 -8,0 -7,2 C-7,4 -5,6 -3,6 C-3,6 -3,9 -5,9 L5,9 C3,9 3,6 3,6 C5,6 7,4 7,2 C8,0 6,-2 4,-2 C2,-2 0,0 0,2 Z"/>
      <path d="M0,2 C0,0 -2,-2 -4,-2 C-6,-2 -8,0 -7,2 C-7,4 -5,6 -3,6 C-3,6 -3,9 -5,9 L5,9 C3,9 3,6 3,6 C5,6 7,4 7,2 C8,0 6,-2 4,-2 C2,-2 0,0 0,2 Z" fill="none" stroke="#333" stroke-width="0.2"/>
    </g>
    
    <g id="vipSpadeSymbol" fill="#000000">
      <path d="M0,0 C0,0 -8,9 -6,13 C-4,17 0,17 0,13 L0,13 C0,17 4,17 6,13 C8,9 0,0 0,0 Z"/>
      <path d="M0,0 C0,0 -8,9 -6,13 C-4,17 0,17 0,13 L0,13 C0,17 4,17 6,13 C8,9 0,0 0,0 Z" fill="none" stroke="#333" stroke-width="0.2"/>
    </g>
    
    <!-- Premium chip designs -->
    <g id="vipChipBase">
      <circle r="20" stroke="#333" stroke-width="0.5"/>
      <circle r="19" fill="none" stroke="#d4af37" stroke-width="0.5"/>
      <circle r="17" fill="none" stroke="#d4af37" stroke-width="0.2"/>
      <circle r="15" fill="none" stroke="#d4af37" stroke-width="0.1"/>
      <!-- Decorative patterns -->
      <path d="M-18,0 A18,18 0 0,1 18,0" fill="none" stroke="#d4af37" stroke-width="0.5" transform="rotate(0)"/>
      <path d="M-18,0 A18,18 0 0,1 18,0" fill="none" stroke="#d4af37" stroke-width="0.5" transform="rotate(45)"/>
      <path d="M-18,0 A18,18 0 0,1 18,0" fill="none" stroke="#d4af37" stroke-width="0.5" transform="rotate(90)"/>
      <path d="M-18,0 A18,18 0 0,1 18,0" fill="none" stroke="#d4af37" stroke-width="0.5" transform="rotate(135)"/>
      <!-- Small decorative dots -->
      <circle cx="0" cy="-17" r="1" fill="#d4af37"/>
      <circle cx="12" cy="-12" r="1" fill="#d4af37"/>
      <circle cx="17" cy="0" r="1" fill="#d4af37"/>
      <circle cx="12" cy="12" r="1" fill="#d4af37"/>
      <circle cx="0" cy="17" r="1" fill="#d4af37"/>
      <circle cx="-12" cy="12" r="1" fill="#d4af37"/>
      <circle cx="-17" cy="0" r="1" fill="#d4af37"/>
      <circle cx="-12" cy="-12" r="1" fill="#d4af37"/>
    </g>
    
    <!-- Lighting and ambience effects -->
    <radialGradient id="vipTableLight" cx="50%" cy="40%" r="70%" fx="50%" fy="35%">
      <stop offset="0%" stop-color="#d4af37" stop-opacity="0.2"/>
      <stop offset="40%" stop-color="#d4af37" stop-opacity="0.05"/>
      <stop offset="100%" stop-color="#000" stop-opacity="0.4"/>
    </radialGradient>
    
    <radialGradient id="spotLight" cx="50%" cy="50%" r="50%" fx="40%" fy="40%">
      <stop offset="0%" stop-color="#fff" stop-opacity="0.3"/>
      <stop offset="100%" stop-color="#fff" stop-opacity="0"/>
    </radialGradient>
    
    <!-- Luxurious wood texture for table rim -->
    <linearGradient id="luxuryWood" x1="0%" y1="0%" x2="100%" y2="0%">
      <stop offset="0%" stop-color="#3a1a00"/>
      <stop offset="15%" stop-color="#4a2a10"/>
      <stop offset="30%" stop-color="#3a1a00"/>
      <stop offset="45%" stop-color="#4a2a10"/>
      <stop offset="60%" stop-color="#3a1a00"/>
      <stop offset="75%" stop-color="#4a2a10"/>
      <stop offset="100%" stop-color="#3a1a00"/>
    </linearGradient>
    
    <!-- Gold trim pattern -->
    <pattern id="goldTrim" patternUnits="userSpaceOnUse" width="20" height="20">
      <rect width="20" height="20" fill="#d4af37"/>
      <path d="M0,10 L20,10 M10,0 L10,20" stroke="#aa8c2c" stroke-width="0.5"/>
      <circle cx="10" cy="10" r="5" fill="none" stroke="#aa8c2c" stroke-width="0.5"/>
    </pattern>
    
    <!-- VIP logo emblem -->
    <g id="vipEmblem">
      <circle r="25" fill="#1a0033"/>
      <circle r="24" fill="none" stroke="#d4af37" stroke-width="1"/>
      <circle r="20" fill="none" stroke="#d4af37" stroke-width="0.5"/>
      <path d="M-15,-5 L-5,15 L0,-15 L5,15 L15,-5" fill="none" stroke="#d4af37" stroke-width="2" stroke-linejoin="round" stroke-linecap="round"/>
      <text x="0" y="0" font-family="serif" font-size="12" font-weight="bold" fill="#d4af37" text-anchor="middle" dominant-baseline="middle">VIP</text>
    </g>
  </defs>
  
  <!-- Main table background (luxury environment) -->
  <rect width="800" height="600" fill="#000"/>
  
  <!-- Ambient lighting -->
  <ellipse cx="400" cy="300" rx="600" ry="400" fill="url(#spotLight)" opacity="0.3"/>
  
  <!-- Luxury table -->
  <g id="vipBlackjackTable">
    <!-- Table rim with gold inlay -->
    <ellipse cx="400" cy="370" rx="380" ry="220" fill="url(#luxuryWood)" stroke="#d4af37" stroke-width="5"/>
    <ellipse cx="400" cy="370" rx="365" ry="205" fill="none" stroke="#d4af37" stroke-width="1"/>
    
    <!-- Table felt -->
    <ellipse cx="400" cy="360" rx="350" ry="190" fill="url(#premiumFeltTexture)"/>
    
    <!-- Table lighting effect -->
    <ellipse cx="400" cy="360" rx="350" ry="190" fill="url(#vipTableLight)" opacity="0.8"/>
    
    <!-- Gold inlay patterns -->
    <path d="M200,360 L600,360" stroke="url(#goldTrim)" stroke-width="3" fill="none" opacity="0.7"/>
    
    <!-- Dealer area -->
    <path d="M250,190 Q400,150 550,190" stroke="#d4af37" stroke-width="2" fill="none"/>
    <text x="400" y="160" text-anchor="middle" fill="#d4af37" font-family="serif" font-size="14" font-weight="bold">DEALER</text>
    
    <!-- VIP betting circles -->
    <g id="vipBettingPositions">
      <g transform="translate(200, 350)">
        <circle r="40" fill="none" stroke="#d4af37" stroke-width="1"/>
        <circle r="42" fill="none" stroke="#d4af37" stroke-width="0.5" stroke-dasharray="2,2"/>
        <path d="M-40,0 A40,40 0 0,1 40,0" fill="none" stroke="#d4af37" stroke-width="1" transform="rotate(45)"/>
        <path d="M-40,0 A40,40 0 0,1 40,0" fill="none" stroke="#d4af37" stroke-width="1" transform="rotate(135)"/>
        <text x="0" y="-50" text-anchor="middle" fill="#d4af37" font-family="serif" font-size="12" font-style="italic">BLACKJACK PAYS 2 TO 1</text>
      </g>
      
      <g transform="translate(350, 380)">
        <circle r="40" fill="none" stroke="#d4af37" stroke-width="1"/>
        <circle r="42" fill="none" stroke="#d4af37" stroke-width="0.5" stroke-dasharray="2,2"/>
        <path d="M-40,0 A40,40 0 0,1 40,0" fill="none" stroke="#d4af37" stroke-width="1" transform="rotate(45)"/>
        <path d="M-40,0 A40,40 0 0,1 40,0" fill="none" stroke="#d4af37" stroke-width="1" transform="rotate(135)"/>
        <text x="0" y="-50" text-anchor="middle" fill="#d4af37" font-family="serif" font-size="12" font-style="italic">BLACKJACK PAYS 2 TO 1</text>
      </g>
      
      <g transform="translate(500, 380)">
        <circle r="40" fill="none" stroke="#d4af37" stroke-width="1"/>
        <circle r="42" fill="none" stroke="#d4af37" stroke-width="0.5" stroke-dasharray="2,2"/>
        <path d="M-40,0 A40,40 0 0,1 40,0" fill="none" stroke="#d4af37" stroke-width="1" transform="rotate(45)"/>
        <path d="M-40,0 A40,40 0 0,1 40,0" fill="none" stroke="#d4af37" stroke-width="1" transform="rotate(135)"/>
        <text x="0" y="-50" text-anchor="middle" fill="#d4af37" font-family="serif" font-size="12" font-style="italic">BLACKJACK PAYS 2 TO 1</text>
      </g>
      
      <g transform="translate(650, 350)">
        <circle r="40" fill="none" stroke="#d4af37" stroke-width="1"/>
        <circle r="42" fill="none" stroke="#d4af37" stroke-width="0.5" stroke-dasharray="2,2"/>
        <path d="M-40,0 A40,40 0 0,1 40,0" fill="none" stroke="#d4af37" stroke-width="1" transform="rotate(45)"/>
        <path d="M-40,0 A40,40 0 0,1 40,0" fill="none" stroke="#d4af37" stroke-width="1" transform="rotate(135)"/>
        <text x="0" y="-50" text-anchor="middle" fill="#d4af37" font-family="serif" font-size="12" font-style="italic">BLACKJACK PAYS 2 TO 1</text>
      </g>
    </g>
    
    <!-- Insurance line with premium styling -->
    <path d="M200,230 Q400,190 600,230" stroke="#d4af37" stroke-width="1" fill="none"/>
    <path d="M200,232 Q400,192 600,232" stroke="#d4af37" stroke-width="0.5" fill="none"/>
    <text x="400" y="205" text-anchor="middle" fill="#d4af37" font-family="serif" font-size="12" font-style="italic" font-weight="bold">INSURANCE PAYS 2 TO 1</text>
    
    <!-- VIP table rules -->
    <text x="400" y="450" text-anchor="middle" fill="#d4af37" font-family="serif" font-size="16" font-weight="bold" font-style="italic">VIP RULES • DEALER STANDS ON SOFT 17 • NO PEEK</text>
    
    <!-- VIP Logo/branding -->
    <g transform="translate(400, 80)">
      <rect x="-100" y="-35" width="200" height="70" rx="15" ry="15" fill="#1a0033" stroke="#d4af37" stroke-width="2"/>
      <rect x="-95" y="-30" width="190" height="60" rx="12" ry="12" fill="none" stroke="#d4af37" stroke-width="0.5"/>
      <text x="0" y="-5" text-anchor="middle" dominant-baseline="middle" fill="#d4af37" font-family="serif" font-size="30" font-weight="bold" font-style="italic">VIP</text>
      <text x="0" y="25" text-anchor="middle" dominant-baseline="middle" fill="#d4af37" font-family="serif" font-size="20" font-weight="bold">BLACKJACK</text>
    </g>
    
    <!-- Decorative corner medallions -->
    <use xlink:href="#vipEmblem" transform="translate(150, 200)"/>
    <use xlink:href="#vipEmblem" transform="translate(650, 200)"/>
    
    <!-- Spotlight effect on the center of the table -->
    <ellipse cx="400" cy="360" rx="150" ry="80" fill="url(#spotLight)" opacity="0.2"/>
  </g>
  
  <!-- Dealer's premium cards -->
  <g id="vipDealerCards" transform="translate(400, 210)">
    <!-- Face down card -->
    <g transform="translate(-30, 0) rotate(-5)">
      <use xlink:href="#vipCardBase"/>
      <rect x="0" y="0" width="60" height="80" rx="4" ry="4" fill="url(#vipCardBack)"/>
    </g>
    
    <!-- Face up card (Ace of Spades with premium styling) -->
    <g transform="translate(30, 0) rotate(5)">
      <use xlink:href="#vipCardBase"/>
      <text x="5" y="18" font-family="serif" font-size="16" font-weight="bold" font-style="italic">A</text>
      <use xlink:href="#vipSpadeSymbol" transform="translate(10, 35) scale(0.8)"/>
      <text x="55" y="75" font-family="serif" font-size="16" font-weight="bold" font-style="italic" text-anchor="end">A</text>
      <use xlink:href="#vipSpadeSymbol" transform="translate(50, 60) scale(0.8)"/>
      
      <!-- Premium Ace design with ornate spade -->
      <g transform="translate(30, 40)">
        <use xlink:href="#vipSpadeSymbol" transform="scale(2)"/>
        <path d="M0,-5 C1,-8 5,-15 0,-20 C-5,-15 -1,-8 0,-5" fill="none" stroke="#000" stroke-width="0.5"/>
        <path d="M-10,0 C-5,5 5,5 10,0" fill="none" stroke="#000" stroke-width="0.3"/>
      </g>
    </g>
  </g>
  
  <!-- VIP Player position 1 cards and chips -->
  <g id="vipPlayer1" transform="translate(200, 350)">
    <!-- Premium Cards -->
    <g transform="translate(0, -20)">
      <g transform="translate(-20, 0) rotate(-10)">
        <use xlink:href="#vipCardBase"/>
        <text x="5" y="18" font-family="serif" font-size="16" font-weight="bold" font-style="italic" fill="#cc0000">K</text>
        <use xlink:href="#vipHeartSymbol" transform="translate(10, 35) scale(0.8)"/>
        <text x="55" y="75" font-family="serif" font-size="16" font-weight="bold" font-style="italic" fill="#cc0000" text-anchor="end">K</text>
        <use xlink:href="#vipHeartSymbol" transform="translate(50, 60) scale(0.8)"/>
        
        <!-- King figure (simplified but elegant) -->
        <g transform="translate(30, 40)">
          <rect x="-10" y="-15" width="20" height="30" rx="2" ry="2" fill="none" stroke="#cc0000" stroke-width="0.3"/>
          <path d="M-10,-10 L10,-10 M-10,-5 L10,-5 M-10,0 L10,0 M-10,5 L10,5 M-10,10 L10,10" stroke="#cc0000" stroke-width="0.3"/>
          <circle cx="0" cy="-20" r="5" fill="none" stroke="#cc0000" stroke-width="0.3"/>
          <path d="M-7,-18 L7,-18" stroke="#cc0000" stroke-width="0.3"/>
        </g>
      </g>
      
      <g transform="translate(20, 0) rotate(10)">
        <use xlink:href="#vipCardBase"/>
        <text x="5" y="18" font-family="serif" font-size="16" font-weight="bold" font-style="italic" fill="#cc0000">Q</text>
        <use xlink:href="#vipHeartSymbol" transform="translate(10, 35) scale(0.8)"/>
        <text x="55" y="75" font-family="serif" font-size="16" font-weight="bold" font-style="italic" fill="#cc0000" text-anchor="end">Q</text>
        <use xlink:href="#vipHeartSymbol" transform="translate(50, 60) scale(0.8)"/>
        
        <!-- Queen figure (simplified but elegant) -->
        <g transform="translate(30, 40)">
          <rect x="-8" y="-15" width="16" height="25" rx="8" ry="8" fill="none" stroke="#cc0000" stroke-width="0.3"/>
          <ellipse cx="0" cy="-20" rx="5" ry="6" fill="none" stroke="#cc0000" stroke-width="0.3"/>
          <path d="M-5,10 Q0,15 5,10" stroke="#cc0000" stroke-width="0.3" fill="none"/>
        </g>
      </g>
    </g>
    
    <!-- Premium Chips -->
    <g transform="translate(0, 60)">
      <g transform="translate(0, 0)">
        <use xlink:href="#vipChipBase" fill="#000"/>
        <text x="0" y="5" text-anchor="middle" fill="#d4af37" font-family="serif" font-size="14" font-weight="bold">100</text>
      </g>
      <g transform="translate(0, -4)">
        <use xlink:href="#vipChipBase" fill="#4a0080"/>
        <text x="0" y="5" text-anchor="middle" fill="#d4af37" font-family="serif" font-size="14" font-weight="bold">500</text>
      </g>
      <g transform="translate(0, -8)">
        <use xlink:href="#vipChipBase" fill="#800020"/>
        <text x="0" y="5" text-anchor="middle" fill="#d4af37" font-family="serif" font-size="14" font-weight="bold">1K</text>
      </g>
    </g>
  </g>
  
  <!-- VIP Player position 3 cards and chips -->
  <g id="vipPlayer3" transform="translate(500, 380)">
    <!-- Premium Cards -->
    <g transform="translate(0, -20)">
      <g transform="translate(-20, 0) rotate(-10)">
        <use xlink:href="#vipCardBase"/>
        <text x="5" y="18" font-family="serif" font-size="16" font-weight="bold" font-style="italic">A</text>
        <use xlink:href="#vipSpadeSymbol" transform="translate(10, 35) scale(0.8)"/>
        <text x="55" y="75" font-family="serif" font-size="16" font-weight="bold" font-style="italic" text-anchor="end">A</text>
        <use xlink:href="#vipSpadeSymbol" transform="translate(50, 60) scale(0.8)"/>
        
        <!-- Premium Ace design -->
        <use xlink:href="#vipSpadeSymbol" transform="translate(30, 40) scale(1.5)"/>
      </g>
      
      <g transform="translate(20, 0) rotate(10)">
        <use xlink:href="#vipCardBase"/>
        <text x="5" y="18" font-family="serif" font-size="16" font-weight="bold" font-style="italic">10</text>
        <use xlink:href="#vipSpadeSymbol" transform="translate(10, 35) scale(0.8)"/>
        <text x="55" y="75" font-family="serif" font-size="16" font-weight="bold" font-style="italic" text-anchor="end">10</text>
        <use xlink:href="#vipSpadeSymbol" transform="translate(50, 60) scale(0.8)"/>
        
        <!-- Pattern of spades -->
        <g transform="translate(30, 40) scale(0.4)">
          <use xlink:href="#vipSpadeSymbol" transform="translate(-30, -30)"/>
          <use xlink:href="#vipSpadeSymbol" transform="translate(0, -30)"/>
          <use xlink:href="#vipSpadeSymbol" transform="translate(30, -30)"/>
          <use xlink:href="#vipSpadeSymbol" transform="translate(-30, 0)"/>
          <use xlink:href="#vipSpadeSymbol" transform="translate(0, 0)"/>
          <use xlink:href="#vipSpadeSymbol" transform="translate(30, 0)"/>
          <use xlink:href="#vipSpadeSymbol" transform="translate(-30, 30)"/>
          <use xlink:href="#vipSpadeSymbol" transform="translate(0, 30)"/>
          <use xlink:href="#vipSpadeSymbol" transform="translate(30, 30)"/>
        </g>
      </g>
    </g>
    
    <!-- Premium Chips -->
    <g transform="translate(0, 60)">
      <g transform="translate(3, 0)">
        <use xlink:href="#vipChipBase" fill="#000"/>
        <text x="0" y="5" text-anchor="middle" fill="#d4af37" font-family="serif" font-size="14" font-weight="bold">100</text>
      </g>
      <g transform="translate(0, -4)">
        <use xlink:href="#vipChipBase" fill="#000"/>
        <text x="0" y="5" text-anchor="middle" fill="#d4af37" font-family="serif" font-size="14" font-weight="bold">100</text>
      </g>
      <g transform="translate(-3, -8)">
        <use xlink:href="#vipChipBase" fill="#000"/>
        <text x="0" y="5" text-anchor="middle" fill="#d4af37" font-family="serif" font-size="14" font-weight="bold">100</text>
      </g>
      <g transform="translate(0, -12)">
        <use xlink:href="#vipChipBase" fill="#4a0080"/>
        <text x="0" y="5" text-anchor="middle" fill="#d4af37" font-family="serif" font-size="14" font-weight="bold">500</text>
      </g>
    </g>
  </g>
  
  <!-- Luxury atmosphere elements -->
  <g id="luxuryElements">
    <!-- Spotlight effects -->
    <ellipse cx="200" cy="350" rx="60" ry="60" fill="url(#spotLight)" opacity="0.3"/>
    <ellipse cx="500" cy="380" rx="60" ry="60" fill="url(#spotLight)" opacity="0.3"/>
    
    <!-- Glowing card edges on blackjack hands -->
    <g transform="translate(200, 330)" opacity="0.3">
      <rect x="-40" y="-20" width="80" height="60" rx="10" ry="10" fill="#d4af37" filter="blur(10px)"/>
    </g>
    
    <!-- Ambient light reflections -->
    <g opacity="0.05">
      <path d="M100,100 L700,500" stroke="#d4af37" stroke-width="2"/>
      <path d="M700,100 L100,500" stroke="#d4af37" stroke-width="2"/>
      <path d="M400,50 L400,550" stroke="#d4af37" stroke-width="2"/>
      <path d="M100,300 L700,300" stroke="#d4af37" stroke-width="2"/>
    </g>
    
    <!-- Subtle gold dust particles -->
    <g opacity="0.2">
      <circle cx="150" cy="150" r="1" fill="#d4af37"/>
      <circle cx="250" cy="200" r="1" fill="#d4af37"/>
      <circle cx="350" cy="250" r="1" fill="#d4af37"/>
      <circle cx="450" cy="150" r="1" fill="#d4af37"/>
      <circle cx="550" cy="200" r="1" fill="#d4af37"/>
      <circle cx="650" cy="250" r="1" fill="#d4af37"/>
      <circle cx="200" cy="400" r="1" fill="#d4af37"/>
      <circle cx="300" cy="450" r="1" fill="#d4af37"/>
      <circle cx="400" cy="500" r="1" fill="#d4af37"/>
      <circle cx="500" cy="400" r="1" fill="#d4af37"/>
      <circle cx="600" cy="450" r="1" fill="#d4af37"/>
      <circle cx="150" cy="350" r="1" fill="#d4af37"/>
      <circle cx="250" cy="300" r="1" fill="#d4af37"/>
      <circle cx="350" cy="350" r="1" fill="#d4af37"/>
      <circle cx="450" cy="300" r="1" fill="#d4af37"/>
      <circle cx="550" cy="350" r="1" fill="#d4af37"/>
      <circle cx="650" cy="300" r="1" fill="#d4af37"/>
    </g>
  </g>
</svg>
