<svg xmlns="http://www.w3.org/2000/svg" viewBox="0 0 200 200" width="200" height="200">
    <!-- Pattern Definition -->
    <defs>
        <pattern id="artDecoPattern" patternUnits="userSpaceOnUse" width="200" height="200">
            <!-- Gradient definitions for sophisticated coloring -->
            <linearGradient id="goldGradient" x1="0%" y1="0%" x2="100%" y2="100%">
                <stop offset="0%" stop-color="#e6c673" />
                <stop offset="50%" stop-color="#f9e7b3" />
                <stop offset="100%" stop-color="#d4af37" />
            </linearGradient>

            <linearGradient id="darkGradient" x1="0%" y1="0%" x2="100%" y2="0%">
                <stop offset="0%" stop-color="#1a1a2e" />
                <stop offset="50%" stop-color="#16213e" />
                <stop offset="100%" stop-color="#1a1a2e" />
            </linearGradient>

            <!-- Background -->
            <rect width="200" height="200" fill="url(#darkGradient)" />

            <!-- Art Deco Geometric Elements -->
            <!-- Central Sunburst Pattern -->
            <g transform="translate(100,100)">
                <path d="M0,0 L30,0 L40,-60 L0,-80 Z" fill="url(#goldGradient)" transform="rotate(0)" />
                <path d="M0,0 L30,0 L40,-60 L0,-80 Z" fill="url(#goldGradient)" transform="rotate(45)" />
                <path d="M0,0 L30,0 L40,-60 L0,-80 Z" fill="url(#goldGradient)" transform="rotate(90)" />
                <path d="M0,0 L30,0 L40,-60 L0,-80 Z" fill="url(#goldGradient)" transform="rotate(135)" />
                <path d="M0,0 L30,0 L40,-60 L0,-80 Z" fill="url(#goldGradient)" transform="rotate(180)" />
                <path d="M0,0 L30,0 L40,-60 L0,-80 Z" fill="url(#goldGradient)" transform="rotate(225)" />
                <path d="M0,0 L30,0 L40,-60 L0,-80 Z" fill="url(#goldGradient)" transform="rotate(270)" />
                <path d="M0,0 L30,0 L40,-60 L0,-80 Z" fill="url(#goldGradient)" transform="rotate(315)" />
            </g>

            <!-- Corner Decorative Elements -->
            <g>
                <!-- Top Left -->
                <path d="M0,0 L40,0 L40,5 L5,5 L5,40 L0,40 Z" fill="url(#goldGradient)" />
                <path d="M15,15 L30,15 L30,20 L20,20 L20,30 L15,30 Z" fill="url(#goldGradient)" />

                <!-- Top Right -->
                <path d="M160,0 L200,0 L200,40 L195,40 L195,5 L160,5 Z" fill="url(#goldGradient)" />
                <path d="M170,15 L185,15 L185,30 L180,30 L180,20 L170,20 Z" fill="url(#goldGradient)" />

                <!-- Bottom Left -->
                <path d="M0,160 L5,160 L5,195 L40,195 L40,200 L0,200 Z" fill="url(#goldGradient)" />
                <path d="M15,170 L20,170 L20,180 L30,180 L30,185 L15,185 Z" fill="url(#goldGradient)" />

                <!-- Bottom Right -->
                <path d="M195,160 L200,160 L200,200 L160,200 L160,195 L195,195 Z" fill="url(#goldGradient)" />
                <path d="M180,170 L185,170 L185,185 L170,185 L170,180 L180,180 Z" fill="url(#goldGradient)" />
            </g>

            <!-- Decorative Border Elements -->
            <g stroke="url(#goldGradient)" stroke-width="2" fill="none">
                <rect x="10" y="10" width="180" height="180" rx="0" />
                <rect x="20" y="20" width="160" height="160" rx="0" />
            </g>

            <!-- Fine Detail Work - Accent Lines -->
            <g stroke="#d4af37" stroke-width="0.5" fill="none">
                <line x1="0" y1="50" x2="50" y2="0" />
                <line x1="0" y1="100" x2="100" y2="0" />
                <line x1="0" y1="150" x2="150" y2="0" />
                <line x1="0" y1="200" x2="200" y2="0" />
                <line x1="50" y1="200" x2="200" y2="50" />
                <line x1="100" y1="200" x2="200" y2="100" />
                <line x1="150" y1="200" x2="200" y2="150" />
            </g>

            <!-- Center Circular Element -->
            <circle cx="100" cy="100" r="15" fill="#1a1a2e" stroke="url(#goldGradient)" stroke-width="2" />
            <circle cx="100" cy="100" r="8" fill="url(#goldGradient)" />
        </pattern>
    </defs>

    <!-- Apply the pattern to a rectangle that fills the SVG -->
    <rect width="100%" height="100%" fill="url(#artDecoPattern)" />
</svg>