<svg xmlns="http://www.w3.org/2000/svg" viewBox="0 0 100 100" width="100" height="100">
    <defs>
        <!-- Pattern Definition with 100x100 dimensions for optimal tiling -->
        <pattern id="dotsPattern" patternUnits="userSpaceOnUse" width="100" height="100">
            <!-- Sophisticated gradients for depth -->
            <radialGradient id="dotGradient1" cx="50%" cy="50%" r="50%" fx="25%" fy="25%">
                <stop offset="0%" stop-color="#f0f0f0" />
                <stop offset="50%" stop-color="#d8d8d8" />
                <stop offset="100%" stop-color="#c0c0c0" />
            </radialGradient>

            <radialGradient id="dotGradient2" cx="50%" cy="50%" r="50%" fx="25%" fy="25%">
                <stop offset="0%" stop-color="#e0e0e0" />
                <stop offset="70%" stop-color="#c8c8c8" />
                <stop offset="100%" stop-color="#b0b0b0" />
            </radialGradient>

            <filter id="softShadow" x="-20%" y="-20%" width="140%" height="140%">
                <feGaussianBlur in="SourceAlpha" stdDeviation="0.8" />
                <feOffset dx="0.5" dy="0.5" result="offsetblur" />
                <feComponentTransfer>
                    <feFuncA type="linear" slope="0.5" />
                </feComponentTransfer>
                <feMerge>
                    <feMergeNode />
                    <feMergeNode in="SourceGraphic" />
                </feMerge>
            </filter>

            <!-- Background -->
            <rect width="100" height="100" fill="#f8f8f8" />

            <!-- Main dot pattern - arranged in a grid -->
            <!-- First row -->
            <circle cx="10" cy="10" r="2.5" fill="url(#dotGradient1)" filter="url(#softShadow)" />
            <circle cx="30" cy="10" r="2.5" fill="url(#dotGradient2)" filter="url(#softShadow)" />
            <circle cx="50" cy="10" r="2.5" fill="url(#dotGradient1)" filter="url(#softShadow)" />
            <circle cx="70" cy="10" r="2.5" fill="url(#dotGradient2)" filter="url(#softShadow)" />
            <circle cx="90" cy="10" r="2.5" fill="url(#dotGradient1)" filter="url(#softShadow)" />

            <!-- Second row - offset -->
            <circle cx="20" cy="30" r="2.5" fill="url(#dotGradient2)" filter="url(#softShadow)" />
            <circle cx="40" cy="30" r="2.5" fill="url(#dotGradient1)" filter="url(#softShadow)" />
            <circle cx="60" cy="30" r="2.5" fill="url(#dotGradient2)" filter="url(#softShadow)" />
            <circle cx="80" cy="30" r="2.5" fill="url(#dotGradient1)" filter="url(#softShadow)" />

            <!-- Third row -->
            <circle cx="10" cy="50" r="2.5" fill="url(#dotGradient1)" filter="url(#softShadow)" />
            <circle cx="30" cy="50" r="2.5" fill="url(#dotGradient2)" filter="url(#softShadow)" />
            <circle cx="50" cy="50" r="2.5" fill="url(#dotGradient1)" filter="url(#softShadow)" />
            <circle cx="70" cy="50" r="2.5" fill="url(#dotGradient2)" filter="url(#softShadow)" />
            <circle cx="90" cy="50" r="2.5" fill="url(#dotGradient1)" filter="url(#softShadow)" />

            <!-- Fourth row - offset -->
            <circle cx="20" cy="70" r="2.5" fill="url(#dotGradient2)" filter="url(#softShadow)" />
            <circle cx="40" cy="70" r="2.5" fill="url(#dotGradient1)" filter="url(#softShadow)" />
            <circle cx="60" cy="70" r="2.5" fill="url(#dotGradient2)" filter="url(#softShadow)" />
            <circle cx="80" cy="70" r="2.5" fill="url(#dotGradient1)" filter="url(#softShadow)" />

            <!-- Fifth row -->
            <circle cx="10" cy="90" r="2.5" fill="url(#dotGradient1)" filter="url(#softShadow)" />
            <circle cx="30" cy="90" r="2.5" fill="url(#dotGradient2)" filter="url(#softShadow)" />
            <circle cx="50" cy="90" r="2.5" fill="url(#dotGradient1)" filter="url(#softShadow)" />
            <circle cx="70" cy="90" r="2.5" fill="url(#dotGradient2)" filter="url(#softShadow)" />
            <circle cx="90" cy="90" r="2.5" fill="url(#dotGradient1)" filter="url(#softShadow)" />

            <!-- Subtle accent dots - smaller and lighter -->
            <g opacity="0.4">
                <circle cx="10" cy="20" r="1" fill="#d0d0d0" />
                <circle cx="30" cy="20" r="1" fill="#d0d0d0" />
                <circle cx="50" cy="20" r="1" fill="#d0d0d0" />
                <circle cx="70" cy="20" r="1" fill="#d0d0d0" />
                <circle cx="90" cy="20" r="1" fill="#d0d0d0" />

                <circle cx="20" cy="40" r="1" fill="#d0d0d0" />
                <circle cx="40" cy="40" r="1" fill="#d0d0d0" />
                <circle cx="60" cy="40" r="1" fill="#d0d0d0" />
                <circle cx="80" cy="40" r="1" fill="#d0d0d0" />

                <circle cx="10" cy="60" r="1" fill="#d0d0d0" />
                <circle cx="30" cy="60" r="1" fill="#d0d0d0" />
                <circle cx="50" cy="60" r="1" fill="#d0d0d0" />
                <circle cx="70" cy="60" r="1" fill="#d0d0d0" />
                <circle cx="90" cy="60" r="1" fill="#d0d0d0" />

                <circle cx="20" cy="80" r="1" fill="#d0d0d0" />
                <circle cx="40" cy="80" r="1" fill="#d0d0d0" />
                <circle cx="60" cy="80" r="1" fill="#d0d0d0" />
                <circle cx="80" cy="80" r="1" fill="#d0d0d0" />
            </g>
        </pattern>
    </defs>

    <!-- Apply the pattern to the entire SVG area -->
    <rect width="100%" height="100%" fill="url(#dotsPattern)" />
</svg>