<?xml version="1.0" encoding="UTF-8"?>
<svg width="1000" height="1000" viewBox="0 0 1000 1000"
    xmlns="http://www.w3.org/2000/svg">
    <defs>
        <!-- Premium gradients for sophisticated effects -->
        <linearGradient id="subtleGradient" x1="0%" y1="0%" x2="100%" y2="100%">
            <stop offset="0%" stop-color="#ffffff" stop-opacity="0.1"/>
            <stop offset="50%" stop-color="#ffffff" stop-opacity="0.06"/>
            <stop offset="100%" stop-color="#ffffff" stop-opacity="0.1"/>
        </linearGradient>

        <!-- Enhanced center glow -->
        <radialGradient id="centerGlow" cx="50%" cy="50%" r="60%" fx="50%" fy="50%">
            <stop offset="0%" stop-color="#ffffff" stop-opacity="0.2"/>
            <stop offset="60%" stop-color="#ffffff" stop-opacity="0.08"/>
            <stop offset="100%" stop-color="#ffffff" stop-opacity="0"/>
        </radialGradient>

        <!-- Betting spot highlight -->
        <radialGradient id="spotHighlight" cx="50%" cy="50%" r="100%" fx="50%" fy="50%">
            <stop offset="0%" stop-color="#ffffff" stop-opacity="0.15"/>
            <stop offset="70%" stop-color="#ffffff" stop-opacity="0.05"/>
            <stop offset="100%" stop-color="#ffffff" stop-opacity="0"/>
        </radialGradient>

        <!-- Premium card suit symbols -->
        <symbol id="spade" viewBox="0 0 40 40">
            <path d="M20,2 C16,8 6,12 6,22 C6,28 11,32 16,32 C17.5,32 19,31.5 20,30 C21,31.5 22.5,32 24,32 C29,32 34,28 34,22 C34,12 24,8 20,2 Z" fill="currentColor"/>
            <path d="M14,33 L26,33 L24,40 L16,40 Z" fill="currentColor"/>
        </symbol>

        <symbol id="heart" viewBox="0 0 40 40">
            <path d="M20,10 C20,4 14,1 10,5 C6,9 6,16 10,22 C14,28 20,34 20,34 C20,34 26,28 30,22 C34,16 34,9 30,5 C26,1 20,4 20,10 Z" fill="currentColor"/>
        </symbol>

        <symbol id="diamond" viewBox="0 0 40 40">
            <path d="M20,2 L36,20 L20,38 L4,20 Z" fill="currentColor"/>
        </symbol>

        <symbol id="club" viewBox="0 0 40 40">
            <path d="M20,6 C20,2 16,0 12,2 C8,4 7,10 10,14 C11,15 12,16 12,16 C12,16 9,15 6,15 C2,15 0,19 2,23 C4,27 10,28 14,25 C15,24 16,23 16,23 C16,23 15,26 15,29 C15,33 19,36 23,34 C27,32 28,26 25,22 C24,21 23,20 23,20 C23,20 26,21 29,21 C33,21 36,17 34,13 C32,9 26,8 22,11 C21,12 20,13 20,13 C20,13 20,10 20,6 Z" fill="currentColor"/>
            <path d="M14,33 L26,33 L24,40 L16,40 Z" fill="currentColor"/>
        </symbol>

        <!-- Premium betting spot pattern -->
        <pattern id="bettingSpot" width="120" height="120" patternUnits="userSpaceOnUse">
            <circle cx="60" cy="60" r="58" fill="none" stroke="#ffffff" stroke-width="0.8" stroke-opacity="0.2"/>
            <circle cx="60" cy="60" r="54" fill="none" stroke="#ffffff" stroke-width="0.6" stroke-opacity="0.15"/>
            <circle cx="60" cy="60" r="50" fill="none" stroke="#ffffff" stroke-width="0.4" stroke-opacity="0.1"/>
            <circle cx="60" cy="60" r="46" fill="url(#spotHighlight)" opacity="0.1"/>
        </pattern>

        <!-- Perfect pairs box pattern -->
        <pattern id="perfectPairsBox" width="100" height="50" patternUnits="userSpaceOnUse">
            <rect width="100" height="50" rx="8" ry="8" fill="#000000" fill-opacity="0.25"/>
            <rect x="2" y="2" width="96" height="46" rx="6" ry="6" fill="none" stroke="#ffffff" stroke-width="0.5" stroke-opacity="0.2"/>
        </pattern>

        <!-- Subtle grid pattern -->
        <pattern id="gridPattern" width="50" height="50" patternUnits="userSpaceOnUse">
            <path d="M50,0 L0,0 L0,50" fill="none" stroke="#ffffff" stroke-width="0.2" stroke-opacity="0.05"/>
        </pattern>
    </defs>

    <!-- Background fill -->
    <rect width="1000" height="1000" fill="none"/>

    <!-- Subtle grid background -->
    <rect width="1000" height="1000" fill="url(#gridPattern)" opacity="0.5"/>

    <!-- Main circular patterns - elegant and sophisticated -->
    <circle cx="500" cy="500" r="480" fill="none" stroke="#ffffff" stroke-width="0.8" stroke-opacity="0.1"/>
    <circle cx="500" cy="500" r="450" fill="none" stroke="#ffffff" stroke-width="1" stroke-opacity="0.12"/>
    <circle cx="500" cy="500" r="420" fill="none" stroke="#ffffff" stroke-width="0.6" stroke-opacity="0.08"/>
    <circle cx="500" cy="500" r="390" fill="none" stroke="#ffffff" stroke-width="0.4" stroke-opacity="0.06"/>
    <circle cx="500" cy="500" r="360" fill="none" stroke="#ffffff" stroke-width="0.8" stroke-opacity="0.1"/>
    <circle cx="500" cy="500" r="330" fill="none" stroke="#ffffff" stroke-width="0.5" stroke-opacity="0.07"/>
    <circle cx="500" cy="500" r="300" fill="none" stroke="#ffffff" stroke-width="0.3" stroke-opacity="0.05"/>
    <circle cx="500" cy="500" r="270" fill="none" stroke="#ffffff" stroke-width="0.6" stroke-opacity="0.08"/>
    <circle cx="500" cy="500" r="240" fill="none" stroke="#ffffff" stroke-width="0.4" stroke-opacity="0.06"/>
    <circle cx="500" cy="500" r="210" fill="none" stroke="#ffffff" stroke-width="0.2" stroke-opacity="0.04"/>

    <!-- Subtle cross lines -->
    <line x1="0" y1="500" x2="1000" y2="500" stroke="#ffffff" stroke-width="0.4" stroke-opacity="0.06"/>
    <line x1="500" y1="0" x2="500" y2="1000" stroke="#ffffff" stroke-width="0.4" stroke-opacity="0.06"/>
    <line x1="0" y1="0" x2="1000" y2="1000" stroke="#ffffff" stroke-width="0.3" stroke-opacity="0.04"/>
    <line x1="1000" y1="0" x2="0" y2="1000" stroke="#ffffff" stroke-width="0.3" stroke-opacity="0.04"/>

    <!-- Betting area outline -->
    <path d="M250,650 L750,650 C770,650 790,670 790,690 L790,800 C790,820 770,840 750,840 L250,840 C230,840 210,820 210,800 L210,690 C210,670 230,650 250,650 Z" fill="none" stroke="#ffffff" stroke-width="0.5" stroke-opacity="0.08"/>

    <!-- Betting spots - perfectly positioned -->
    <circle cx="350" cy="720" r="60" fill="url(#bettingSpot)"/>
    <circle cx="500" cy="720" r="60" fill="url(#bettingSpot)"/>
    <circle cx="650" cy="720" r="60" fill="url(#bettingSpot)"/>

    <!-- Perfect pairs spots - elegant design -->
    <rect x="300" y="620" width="100" height="50" rx="8" ry="8" fill="url(#perfectPairsBox)"/>
    <rect x="450" y="620" width="100" height="50" rx="8" ry="8" fill="url(#perfectPairsBox)"/>
    <rect x="600" y="620" width="100" height="50" rx="8" ry="8" fill="url(#perfectPairsBox)"/>

    <!-- Dealer area outline -->
    <path d="M300,150 L700,150 C720,150 740,170 740,190 L740,350 C740,370 720,390 700,390 L300,390 C280,390 260,370 260,350 L260,190 C260,170 280,150 300,150 Z" fill="none" stroke="#ffffff" stroke-width="0.5" stroke-opacity="0.08"/>

    <!-- Card suit symbols arranged elegantly -->
    <g transform="translate(500, 500)">
        <!-- Spades -->
        <g transform="translate(-200, -320) scale(1)">
            <use href="#spade" width="40" height="40" fill="#ffffff" opacity="0.12"/>
        </g>
        <g transform="translate(200, 320) scale(1)">
            <use href="#spade" width="40" height="40" fill="#ffffff" opacity="0.12"/>
        </g>

        <!-- Hearts -->
        <g transform="translate(320, -200) scale(1)">
            <use href="#heart" width="40" height="40" fill="#ffffff" opacity="0.12"/>
        </g>
        <g transform="translate(-320, 200) scale(1)">
            <use href="#heart" width="40" height="40" fill="#ffffff" opacity="0.12"/>
        </g>

        <!-- Diamonds -->
        <g transform="translate(320, 200) scale(1)">
            <use href="#diamond" width="40" height="40" fill="#ffffff" opacity="0.12"/>
        </g>
        <g transform="translate(-320, -200) scale(1)">
            <use href="#diamond" width="40" height="40" fill="#ffffff" opacity="0.12"/>
        </g>

        <!-- Clubs -->
        <g transform="translate(200, -320) scale(1)">
            <use href="#club" width="40" height="40" fill="#ffffff" opacity="0.12"/>
        </g>
        <g transform="translate(-200, 320) scale(1)">
            <use href="#club" width="40" height="40" fill="#ffffff" opacity="0.12"/>
        </g>
    </g>

    <!-- Center decorative element - sophisticated design -->
    <g transform="translate(500, 500)">
        <circle cx="0" cy="0" r="120" fill="none" stroke="#ffffff" stroke-width="0.8" stroke-opacity="0.12"/>
        <circle cx="0" cy="0" r="100" fill="none" stroke="#ffffff" stroke-width="0.6" stroke-opacity="0.1"/>
        <circle cx="0" cy="0" r="80" fill="none" stroke="#ffffff" stroke-width="0.4" stroke-opacity="0.08"/>

        <!-- Card suits in center with elegant positioning -->
        <g transform="translate(-50, -50) scale(0.8)">
            <use href="#spade" width="40" height="40" fill="#ffffff" opacity="0.15"/>
        </g>
        <g transform="translate(50, -50) scale(0.8)">
            <use href="#heart" width="40" height="40" fill="#ffffff" opacity="0.15"/>
        </g>
        <g transform="translate(50, 50) scale(0.8)">
            <use href="#diamond" width="40" height="40" fill="#ffffff" opacity="0.15"/>
        </g>
        <g transform="translate(-50, 50) scale(0.8)">
            <use href="#club" width="40" height="40" fill="#ffffff" opacity="0.15"/>
        </g>
    </g>

    <!-- Center glow for depth -->
    <circle cx="500" cy="500" r="180" fill="url(#centerGlow)"/>

    <!-- Subtle radial gradient overlay -->
    <circle cx="500" cy="500" r="500" fill="url(#subtleGradient)"/>

    <!-- Additional decorative elements -->
    <path d="M500,100 L500,140" stroke="#ffffff" stroke-width="0.8" stroke-opacity="0.1"/>
    <path d="M500,860 L500,900" stroke="#ffffff" stroke-width="0.8" stroke-opacity="0.1"/>
    <path d="M100,500 L140,500" stroke="#ffffff" stroke-width="0.8" stroke-opacity="0.1"/>
    <path d="M860,500 L900,500" stroke="#ffffff" stroke-width="0.8" stroke-opacity="0.1"/>
</svg>