<?xml version="1.0" encoding="UTF-8"?>
<svg viewBox="0 0 140 190" xmlns="http://www.w3.org/2000/svg" xmlns:xlink="http://www.w3.org/1999/xlink">
 <defs>
  <linearGradient id="a">
   <stop stop-color="#000086" offset="0"/>
   <stop stop-color="#005aff" offset="1"/>
  </linearGradient>
  <linearGradient id="d" x1="2" x2="109" y1="62.1" y2="127.7" gradientUnits="userSpaceOnUse">
   <stop stop-color="#ebf0d0" offset="0"/>
   <stop stop-color="#ffffeb" offset="1"/>
  </linearGradient>
  <linearGradient id="c" x1="138.23" x2="36.52" y1="146.62" y2="18.728" gradientTransform="scale(.85424 1.1706)" gradientUnits="userSpaceOnUse" xlink:href="#a"/>
  <linearGradient id="b" x1="22.029" x2="146.4" y1="17.153" y2="140.45" gradientTransform="scale(.85537 1.1691)" gradientUnits="userSpaceOnUse" xlink:href="#a"/>
  <linearGradient id="e" x1="24.314" x2="128.44" y1="31.254" y2="134.97" gradientTransform="scale(.88507 1.1298)" gradientUnits="userSpaceOnUse" xlink:href="#a"/>
 </defs>
 <path d="m21 5h103c8.864 0 16 7.136 16 16v153c0 8.864-7.136 16-16 16h-103c-8.864 0-16-7.136-16-16v-153c0-8.864 7.136-16 16-16z" fill-opacity=".49804"/>
 <path d="m17 1h103c8.864 0 16 7.136 16 16v153c0 8.864-7.136 16-16 16h-103c-8.864 0-16-7.136-16-16v-153c0-8.864 7.136-16 16-16z" fill="#fff"/>
 <path d="m19 3h103c8.864 0 16 7.136 16 16v153c0 8.864-7.136 16-16 16h-103c-8.864 0-16-7.136-16-16v-153c0-8.864 7.136-16 16-16z" fill="#c7891f"/>
 <path d="m18 2h103c8.864 0 16 7.136 16 16v153c0 8.864-7.136 16-16 16h-103c-8.864 0-16-7.136-16-16v-153c0-8.864 7.136-16 16-16z" fill="url(#d)"/>
 <path d="m22.167 10h94.417c8.1253 0 14.667 6.5413 14.667 14.667v140.25c0 8.1253-6.5413 14.667-14.667 14.667h-94.417c-8.1253 0-14.667-6.5413-14.667-14.667v-140.25c0-8.1253 6.5413-14.667 14.667-14.667z" fill="url(#c)"/>
 <path d="m22.156 9.375c-8.4608 0-15.281 6.8205-15.281 15.281v140.25c0 8.4608 6.8205 15.312 15.281 15.312h94.438c8.4608 0 15.281-6.8517 15.281-15.312v-140.25c0-8.4608-6.8205-15.281-15.281-15.281h-94.438zm0 1.25h94.438c7.7899 0 14.031 6.2414 14.031 14.031v140.25c0 7.7899-6.2414 14.062-14.031 14.062h-94.438c-7.7899 0-14.031-6.2726-14.031-14.062v-140.25c0-7.7899 6.2414-14.031 14.031-14.031z" fill="url(#b)"/>
 <path d="m38.906 21.25c-5.726 0-10.375 7.0133-10.375 15.656 0 7.3632 9.4288 19.742 9.0625 25.625-3.0285 1.6813-12.383-13.812-17.219-13.812-5.726 0-10.375 7.0133-10.375 15.656s4.649 15.656 10.375 15.656c4.9661 0 13.475-15.525 17.219-14.125 0.06999 2.007-0.13332 20.511-1.1875 21.844-2.2792 2.8812-5.1562 2.6875-5.1562 2.6875l0.0625 3.1562 15.062-0.09375 0.0625-3.1562c1e-5 0-2.8458 0.22498-5.125-2.6562-1.0487-1.3258-1.523-21.022-1.5312-21.656h0.09375v0.03125c3.6664-1.3746 12.475 14.25 17.406 14.25 5.726 0 10.375-7.0133 10.375-15.656s-4.649-15.656-10.375-15.656c-4.816 0-13.542 15.262-17.375 13.688 0.05386-6.0284 9.375-18.426 9.375-25.781 0-8.6429-4.649-15.656-10.375-15.656zm59.594 3.9062c-8.8602 17.718-15.33 26.866-28.656 36.625 12.611 9.6419 21.503 19.611 28.906 35.719 6.6126-15.302 14.698-26.704 28.75-36.188-14.135-7.1963-22.305-18.615-29-36.156zm-73.375 73.594c-1.719 0.01156-3.5965 0.45499-5.6875 1.4062-22.794 17.714 7.9314 46.285 20.906 70.812l0.375 0.125c14.259-26.81 41.396-56.318 20.656-70.938-16.431-7.4747-20.815 17.384-20.969 18.281-0.13382-0.78294-3.4929-19.767-15.281-19.688zm73.875 0.15625c-10.575 16.814-43.025 45.473-22.469 54.312 12.478 4.0694 18.422-4.2662 20.938-9.7812h0.5c-0.01892 1.037-0.49056 21.3-1.8125 22.5-2.9003 2.6333-6.5625 2.4375-6.5625 2.4375l0.0625 2.875 19.219-0.09375 0.0625-2.8125s-3.631 0.16459-6.5312-2.4688c-1.3221-1.2004-1.8249-21.446-1.8438-22.469h0.21875c2.0314 4.5065 9.7393 13.834 18.219 10.281 24.795-9.9596-11.708-38.316-20-54.781z" fill="url(#e)" fill-rule="evenodd"/>
</svg>
